<svg width="14" height="15" viewBox="0 0 14 15" fill="none" xmlns="http://www.w3.org/2000/svg">
<path d="M10.1792 13.2751C9.51999 13.2751 8.82582 13.1176 8.10832 12.8142C7.40832 12.5167 6.70249 12.1084 6.01416 11.6126C5.33166 11.1109 4.67249 10.5509 4.04832 9.9384C3.42999 9.31423 2.86999 8.65507 2.37416 7.9784C1.87249 7.2784 1.46999 6.5784 1.18416 5.90173C0.880823 5.1784 0.729156 4.4784 0.729156 3.81923C0.729156 3.36423 0.810823 2.93257 0.968323 2.53007C1.13166 2.1159 1.39416 1.7309 1.74999 1.3984C2.19916 0.955065 2.71249 0.733398 3.26082 0.733398C3.48832 0.733398 3.72166 0.785898 3.91999 0.879232C4.14749 0.984232 4.33999 1.14173 4.47999 1.35173L5.83332 3.25923C5.95582 3.4284 6.04916 3.59173 6.11332 3.75507C6.18916 3.93007 6.22999 4.10507 6.22999 4.27423C6.22999 4.4959 6.16582 4.71173 6.04332 4.9159C5.95582 5.0734 5.82166 5.24257 5.65249 5.41173L5.25582 5.8259C5.26166 5.8434 5.26749 5.85507 5.27332 5.86673C5.34332 5.98923 5.48332 6.19923 5.75166 6.51423C6.03749 6.8409 6.30582 7.1384 6.57416 7.41257C6.91832 7.7509 7.20416 8.01923 7.47249 8.2409C7.80499 8.5209 8.02082 8.6609 8.14916 8.72507L8.13749 8.75423L8.56332 8.33423C8.74416 8.1534 8.91916 8.01923 9.08832 7.93173C9.40916 7.7334 9.81749 7.6984 10.2258 7.86757C10.3775 7.93173 10.5408 8.01923 10.7158 8.14173L12.6525 9.5184C12.8683 9.66423 13.0258 9.8509 13.1192 10.0726C13.2067 10.2942 13.2475 10.4984 13.2475 10.7026C13.2475 10.9826 13.1833 11.2626 13.0608 11.5251C12.9383 11.7876 12.7867 12.0151 12.5942 12.2251C12.2617 12.5926 11.9 12.8551 11.48 13.0242C11.0775 13.1876 10.64 13.2751 10.1792 13.2751ZM3.26082 1.6084C2.93999 1.6084 2.64249 1.7484 2.35666 2.0284C2.08832 2.27923 1.90166 2.5534 1.78499 2.8509C1.66249 3.15423 1.60416 3.47507 1.60416 3.81923C1.60416 4.36173 1.73249 4.9509 1.98916 5.55757C2.25166 6.1759 2.61916 6.81757 3.08582 7.45923C3.55249 8.1009 4.08332 8.72507 4.66666 9.31423C5.24999 9.89173 5.87999 10.4284 6.52749 10.9009C7.15749 11.3617 7.80499 11.7351 8.44666 12.0034C9.44416 12.4292 10.3775 12.5284 11.1475 12.2076C11.445 12.0851 11.7075 11.8984 11.9467 11.6301C12.0808 11.4842 12.1858 11.3267 12.2733 11.1401C12.3433 10.9942 12.3783 10.8426 12.3783 10.6909C12.3783 10.5976 12.3608 10.5042 12.3142 10.3992C12.2967 10.3642 12.2617 10.3001 12.1508 10.2242L10.2142 8.84757C10.0975 8.7659 9.99249 8.70757 9.89332 8.66673C9.76499 8.61423 9.71249 8.56173 9.51416 8.68423C9.39749 8.74257 9.29249 8.83007 9.17582 8.94673L8.73249 9.38423C8.50499 9.6059 8.15499 9.6584 7.88666 9.55923L7.72916 9.48923C7.48999 9.3609 7.20999 9.16257 6.90082 8.90007C6.62082 8.6609 6.31749 8.3809 5.94999 8.01923C5.66416 7.72757 5.37832 7.4184 5.08082 7.07423C4.80666 6.7534 4.60832 6.47923 4.48582 6.25173L4.41582 6.07673C4.38082 5.94257 4.36916 5.86673 4.36916 5.78507C4.36916 5.57507 4.44499 5.3884 4.59082 5.24257L5.02832 4.78757C5.14499 4.6709 5.23249 4.56007 5.29082 4.4609C5.33749 4.38507 5.35499 4.3209 5.35499 4.26257C5.35499 4.2159 5.33749 4.1459 5.30832 4.0759C5.26749 3.98257 5.20332 3.87757 5.12166 3.76673L3.76832 1.8534C3.70999 1.77173 3.63999 1.7134 3.55249 1.67257C3.45916 1.63173 3.35999 1.6084 3.26082 1.6084ZM8.13749 8.76007L8.04416 9.15673L8.20166 8.7484C8.17249 8.74257 8.14916 8.7484 8.13749 8.76007Z" fill="white"/>
<path d="M10.7917 5.69108C10.5525 5.69108 10.3542 5.49275 10.3542 5.25358C10.3542 5.04358 10.1442 4.60608 9.79417 4.23275C9.45 3.86525 9.07083 3.64941 8.75 3.64941C8.51083 3.64941 8.3125 3.45108 8.3125 3.21191C8.3125 2.97275 8.51083 2.77441 8.75 2.77441C9.31583 2.77441 9.91083 3.07775 10.43 3.63191C10.9142 4.15108 11.2292 4.78691 11.2292 5.25358C11.2292 5.49275 11.0308 5.69108 10.7917 5.69108Z" fill="white"/>
<path d="M12.8333 5.69173C12.5942 5.69173 12.3958 5.4934 12.3958 5.25423C12.3958 3.24173 10.7625 1.6084 8.75 1.6084C8.51083 1.6084 8.3125 1.41007 8.3125 1.1709C8.3125 0.931732 8.51083 0.733398 8.75 0.733398C11.2408 0.733398 13.2708 2.7634 13.2708 5.25423C13.2708 5.4934 13.0725 5.69173 12.8333 5.69173Z" fill="white"/>
</svg>
