<svg width="360" height="118" viewBox="0 0 360 118" fill="none" xmlns="http://www.w3.org/2000/svg">
<circle cx="40" cy="42" r="39" fill="#005770" stroke="white" stroke-width="2"/>
<circle cx="180" cy="42" r="41" fill="#FBAD32" stroke="white" stroke-width="2"/>
<circle cx="320" cy="42" r="39" fill="#005770" stroke="white" stroke-width="2"/>
<path d="M161.648 115H158.19V105.312H161.648C163.225 105.312 164.271 105.937 164.784 107.188C165.083 107.907 165.232 108.849 165.232 110.016C165.232 112.452 164.625 113.987 163.412 114.622C162.927 114.874 162.339 115 161.648 115ZM164.126 110.016C164.126 108.159 163.711 107.001 162.88 106.544C162.544 106.357 162.133 106.264 161.648 106.264H159.268V114.048H161.648C163.3 114.048 164.126 112.704 164.126 110.016ZM167.031 115V108H168.081V115H167.031ZM167.031 106.418V105.2H168.081V106.418H167.031ZM172.292 108.798C171.275 108.798 170.766 109.153 170.766 109.862C170.766 110.189 170.883 110.422 171.116 110.562C171.349 110.693 171.881 110.833 172.712 110.982C173.543 111.122 174.131 111.323 174.476 111.584C174.821 111.845 174.994 112.335 174.994 113.054C174.994 113.773 174.761 114.3 174.294 114.636C173.837 114.972 173.165 115.14 172.278 115.14C171.699 115.14 171.018 115.075 170.234 114.944L169.814 114.874L169.87 113.964C170.934 114.123 171.737 114.202 172.278 114.202C172.819 114.202 173.23 114.118 173.51 113.95C173.799 113.773 173.944 113.483 173.944 113.082C173.944 112.671 173.823 112.396 173.58 112.256C173.337 112.107 172.805 111.967 171.984 111.836C171.163 111.705 170.579 111.514 170.234 111.262C169.889 111.01 169.716 110.543 169.716 109.862C169.716 109.181 169.954 108.677 170.43 108.35C170.915 108.023 171.517 107.86 172.236 107.86C172.805 107.86 173.519 107.925 174.378 108.056L174.77 108.126L174.742 109.022C173.706 108.873 172.889 108.798 172.292 108.798ZM180.228 108.91H178.002V112.256C178.002 113.059 178.058 113.586 178.17 113.838C178.291 114.09 178.571 114.216 179.01 114.216L180.256 114.132L180.326 115C179.7 115.103 179.224 115.154 178.898 115.154C178.17 115.154 177.666 114.977 177.386 114.622C177.106 114.267 176.966 113.591 176.966 112.592V108.91H175.972V108H176.966V105.858H178.002V108H180.228V108.91ZM181.51 115V108H182.546V108.952C183.358 108.392 184.212 108.023 185.108 107.846V108.91C184.716 108.985 184.305 109.101 183.876 109.26C183.456 109.419 183.134 109.559 182.91 109.68L182.56 109.862V115H181.51ZM186.35 115V108H187.4V115H186.35ZM186.35 106.418V105.2H187.4V106.418H186.35ZM193.038 108.91H190.812V112.256C190.812 113.059 190.868 113.586 190.98 113.838C191.102 114.09 191.382 114.216 191.82 114.216L193.066 114.132L193.136 115C192.511 115.103 192.035 115.154 191.708 115.154C190.98 115.154 190.476 114.977 190.196 114.622C189.916 114.267 189.776 113.591 189.776 112.592V108.91H188.782V108H189.776V105.858H190.812V108H193.038V108.91ZM194.013 111.486C194.013 110.207 194.241 109.283 194.699 108.714C195.156 108.145 195.926 107.86 197.008 107.86C198.101 107.86 198.871 108.145 199.319 108.714C199.776 109.283 200.005 110.207 200.005 111.486C200.005 112.765 199.79 113.693 199.361 114.272C198.931 114.851 198.147 115.14 197.008 115.14C195.87 115.14 195.086 114.851 194.657 114.272C194.227 113.693 194.013 112.765 194.013 111.486ZM195.091 111.472C195.091 112.489 195.212 113.203 195.455 113.614C195.707 114.025 196.225 114.23 197.008 114.23C197.802 114.23 198.32 114.029 198.563 113.628C198.805 113.217 198.927 112.499 198.927 111.472C198.927 110.445 198.791 109.741 198.521 109.358C198.25 108.966 197.746 108.77 197.008 108.77C196.281 108.77 195.777 108.966 195.497 109.358C195.226 109.741 195.091 110.445 195.091 111.472Z" fill="#243954"/>
<path d="M289.648 115H286.19V105.312H289.648C291.225 105.312 292.271 105.937 292.784 107.188C293.083 107.907 293.232 108.849 293.232 110.016C293.232 112.452 292.625 113.987 291.412 114.622C290.927 114.874 290.339 115 289.648 115ZM292.126 110.016C292.126 108.159 291.711 107.001 290.88 106.544C290.544 106.357 290.133 106.264 289.648 106.264H287.268V114.048H289.648C291.3 114.048 292.126 112.704 292.126 110.016ZM294.723 111.486C294.723 110.207 294.952 109.283 295.409 108.714C295.867 108.145 296.637 107.86 297.719 107.86C298.811 107.86 299.581 108.145 300.029 108.714C300.487 109.283 300.715 110.207 300.715 111.486C300.715 112.765 300.501 113.693 300.071 114.272C299.642 114.851 298.858 115.14 297.719 115.14C296.581 115.14 295.797 114.851 295.367 114.272C294.938 113.693 294.723 112.765 294.723 111.486ZM295.801 111.472C295.801 112.489 295.923 113.203 296.165 113.614C296.417 114.025 296.935 114.23 297.719 114.23C298.513 114.23 299.031 114.029 299.273 113.628C299.516 113.217 299.637 112.499 299.637 111.472C299.637 110.445 299.502 109.741 299.231 109.358C298.961 108.966 298.457 108.77 297.719 108.77C296.991 108.77 296.487 108.966 296.207 109.358C295.937 109.741 295.801 110.445 295.801 111.472ZM302.428 115V108H303.464V108.952C304.276 108.392 305.13 108.023 306.026 107.846V108.91C305.634 108.985 305.223 109.101 304.794 109.26C304.374 109.419 304.052 109.559 303.828 109.68L303.478 109.862V115H302.428ZM308.318 115H307.268V108H308.304V108.49C309.004 108.07 309.685 107.86 310.348 107.86C311.216 107.86 311.822 108.098 312.168 108.574C312.476 108.387 312.872 108.224 313.358 108.084C313.852 107.935 314.286 107.86 314.66 107.86C315.593 107.86 316.218 108.112 316.536 108.616C316.862 109.111 317.026 110.007 317.026 111.304V115H315.976V111.332C315.976 110.361 315.882 109.699 315.696 109.344C315.509 108.98 315.112 108.798 314.506 108.798C314.198 108.798 313.88 108.845 313.554 108.938C313.227 109.022 312.975 109.106 312.798 109.19L312.532 109.316C312.653 109.624 312.714 110.305 312.714 111.36V115H311.664V111.388C311.664 110.38 311.57 109.699 311.384 109.344C311.206 108.98 310.81 108.798 310.194 108.798C309.895 108.798 309.587 108.845 309.27 108.938C308.962 109.022 308.724 109.106 308.556 109.19L308.318 109.316V115ZM318.971 115V108H320.021V115H318.971ZM318.971 106.418V105.2H320.021V106.418H318.971ZM325.659 108.91H323.433V112.256C323.433 113.059 323.489 113.586 323.601 113.838C323.723 114.09 324.003 114.216 324.441 114.216L325.687 114.132L325.757 115C325.132 115.103 324.656 115.154 324.329 115.154C323.601 115.154 323.097 114.977 322.817 114.622C322.537 114.267 322.397 113.591 322.397 112.592V108.91H321.403V108H322.397V105.858H323.433V108H325.659V108.91ZM326.634 111.486C326.634 110.207 326.862 109.283 327.32 108.714C327.777 108.145 328.547 107.86 329.63 107.86C330.722 107.86 331.492 108.145 331.94 108.714C332.397 109.283 332.626 110.207 332.626 111.486C332.626 112.765 332.411 113.693 331.982 114.272C331.552 114.851 330.768 115.14 329.63 115.14C328.491 115.14 327.707 114.851 327.278 114.272C326.848 113.693 326.634 112.765 326.634 111.486ZM327.712 111.472C327.712 112.489 327.833 113.203 328.076 113.614C328.328 114.025 328.846 114.23 329.63 114.23C330.423 114.23 330.941 114.029 331.184 113.628C331.426 113.217 331.548 112.499 331.548 111.472C331.548 110.445 331.412 109.741 331.142 109.358C330.871 108.966 330.367 108.77 329.63 108.77C328.902 108.77 328.398 108.966 328.118 109.358C327.847 109.741 327.712 110.445 327.712 111.472ZM334.338 115V108H335.374V108.952C336.186 108.392 337.04 108.023 337.936 107.846V108.91C337.544 108.985 337.133 109.101 336.704 109.26C336.284 109.419 335.962 109.559 335.738 109.68L335.388 109.862V115H334.338ZM339.178 115V108H340.228V115H339.178ZM339.178 106.418V105.2H340.228V106.418H339.178ZM341.932 111.486C341.932 110.207 342.161 109.283 342.618 108.714C343.076 108.145 343.846 107.86 344.928 107.86C346.02 107.86 346.79 108.145 347.238 108.714C347.696 109.283 347.924 110.207 347.924 111.486C347.924 112.765 347.71 113.693 347.28 114.272C346.851 114.851 346.067 115.14 344.928 115.14C343.79 115.14 343.006 114.851 342.576 114.272C342.147 113.693 341.932 112.765 341.932 111.486ZM343.01 111.472C343.01 112.489 343.132 113.203 343.374 113.614C343.626 114.025 344.144 114.23 344.928 114.23C345.722 114.23 346.24 114.029 346.482 113.628C346.725 113.217 346.846 112.499 346.846 111.472C346.846 110.445 346.711 109.741 346.44 109.358C346.17 108.966 345.666 108.77 344.928 108.77C344.2 108.77 343.696 108.966 343.416 109.358C343.146 109.741 343.01 110.445 343.01 111.472ZM351.835 108.798C350.818 108.798 350.309 109.153 350.309 109.862C350.309 110.189 350.426 110.422 350.659 110.562C350.892 110.693 351.424 110.833 352.255 110.982C353.086 111.122 353.674 111.323 354.019 111.584C354.364 111.845 354.537 112.335 354.537 113.054C354.537 113.773 354.304 114.3 353.837 114.636C353.38 114.972 352.708 115.14 351.821 115.14C351.242 115.14 350.561 115.075 349.777 114.944L349.357 114.874L349.413 113.964C350.477 114.123 351.28 114.202 351.821 114.202C352.362 114.202 352.773 114.118 353.053 113.95C353.342 113.773 353.487 113.483 353.487 113.082C353.487 112.671 353.366 112.396 353.123 112.256C352.88 112.107 352.348 111.967 351.527 111.836C350.706 111.705 350.122 111.514 349.777 111.262C349.432 111.01 349.259 110.543 349.259 109.862C349.259 109.181 349.497 108.677 349.973 108.35C350.458 108.023 351.06 107.86 351.779 107.86C352.348 107.86 353.062 107.925 353.921 108.056L354.313 108.126L354.285 109.022C353.249 108.873 352.432 108.798 351.835 108.798Z" fill="#243954"/>
<path d="M21.19 115V105.312H27.084V106.264H22.268V109.61H26.244V110.548H22.268V114.048H27.084V115H21.19ZM30.9443 108.798C29.9269 108.798 29.4183 109.153 29.4183 109.862C29.4183 110.189 29.5349 110.422 29.7683 110.562C30.0016 110.693 30.5336 110.833 31.3643 110.982C32.1949 111.122 32.7829 111.323 33.1283 111.584C33.4736 111.845 33.6463 112.335 33.6463 113.054C33.6463 113.773 33.4129 114.3 32.9463 114.636C32.4889 114.972 31.8169 115.14 30.9303 115.14C30.3516 115.14 29.6703 115.075 28.8863 114.944L28.4663 114.874L28.5223 113.964C29.5863 114.123 30.3889 114.202 30.9303 114.202C31.4716 114.202 31.8823 114.118 32.1623 113.95C32.4516 113.773 32.5963 113.483 32.5963 113.082C32.5963 112.671 32.4749 112.396 32.2323 112.256C31.9896 112.107 31.4576 111.967 30.6363 111.836C29.8149 111.705 29.2316 111.514 28.8863 111.262C28.5409 111.01 28.3683 110.543 28.3683 109.862C28.3683 109.181 28.6063 108.677 29.0823 108.35C29.5676 108.023 30.1696 107.86 30.8883 107.86C31.4576 107.86 32.1716 107.925 33.0303 108.056L33.4223 108.126L33.3943 109.022C32.3583 108.873 31.5416 108.798 30.9443 108.798ZM38.8801 108.91H36.6541V112.256C36.6541 113.059 36.7101 113.586 36.8221 113.838C36.9434 114.09 37.2234 114.216 37.6621 114.216L38.9081 114.132L38.9781 115C38.3528 115.103 37.8768 115.154 37.5501 115.154C36.8221 115.154 36.3181 114.977 36.0381 114.622C35.7581 114.267 35.6181 113.591 35.6181 112.592V108.91H34.6241V108H35.6181V105.858H36.6541V108H38.8801V108.91ZM45.1043 110.114V113.698C45.1323 114.043 45.403 114.249 45.9163 114.314L45.8743 115.14C45.137 115.14 44.5816 114.953 44.2083 114.58C43.3683 114.953 42.5283 115.14 41.6883 115.14C41.0443 115.14 40.5543 114.958 40.2183 114.594C39.8823 114.23 39.7143 113.707 39.7143 113.026C39.7143 112.345 39.887 111.845 40.2323 111.528C40.5776 111.201 41.119 111.001 41.8563 110.926L44.0543 110.716V110.114C44.0543 109.638 43.9516 109.297 43.7463 109.092C43.541 108.887 43.261 108.784 42.9063 108.784C42.1596 108.784 41.385 108.831 40.5823 108.924L40.1483 108.966L40.1063 108.168C41.133 107.963 42.043 107.86 42.8363 107.86C43.6296 107.86 44.2036 108.042 44.5583 108.406C44.9223 108.77 45.1043 109.339 45.1043 110.114ZM40.7923 112.97C40.7923 113.829 41.147 114.258 41.8563 114.258C42.491 114.258 43.1163 114.151 43.7323 113.936L44.0543 113.824V111.514L41.9823 111.71C41.5623 111.747 41.259 111.869 41.0723 112.074C40.8856 112.279 40.7923 112.578 40.7923 112.97ZM52.552 104.948V115H51.516V114.524C50.7973 114.935 50.088 115.14 49.388 115.14C49.0146 115.14 48.688 115.093 48.408 115C48.128 114.907 47.8666 114.739 47.624 114.496C47.12 113.992 46.868 113.063 46.868 111.71C46.868 110.347 47.092 109.367 47.54 108.77C47.9973 108.163 48.7486 107.86 49.794 107.86C50.3353 107.86 50.9093 107.921 51.516 108.042V104.948H52.552ZM48.436 113.74C48.5853 113.917 48.744 114.039 48.912 114.104C49.08 114.169 49.2946 114.202 49.556 114.202C49.8266 114.202 50.1253 114.16 50.452 114.076C50.788 113.983 51.0493 113.894 51.236 113.81L51.516 113.684V108.938C50.9186 108.826 50.3633 108.77 49.85 108.77C49.1406 108.77 48.646 108.999 48.366 109.456C48.086 109.904 47.946 110.604 47.946 111.556C47.946 112.639 48.1093 113.367 48.436 113.74ZM54.2781 111.486C54.2781 110.207 54.5068 109.283 54.9641 108.714C55.4215 108.145 56.1915 107.86 57.2741 107.86C58.3661 107.86 59.1361 108.145 59.5841 108.714C60.0415 109.283 60.2701 110.207 60.2701 111.486C60.2701 112.765 60.0555 113.693 59.6261 114.272C59.1968 114.851 58.4128 115.14 57.2741 115.14C56.1355 115.14 55.3515 114.851 54.9221 114.272C54.4928 113.693 54.2781 112.765 54.2781 111.486ZM55.3561 111.472C55.3561 112.489 55.4775 113.203 55.7201 113.614C55.9721 114.025 56.4901 114.23 57.2741 114.23C58.0675 114.23 58.5855 114.029 58.8281 113.628C59.0708 113.217 59.1921 112.499 59.1921 111.472C59.1921 110.445 59.0568 109.741 58.7861 109.358C58.5155 108.966 58.0115 108.77 57.2741 108.77C56.5461 108.77 56.0421 108.966 55.7621 109.358C55.4915 109.741 55.3561 110.445 55.3561 111.472Z" fill="#243954"/>
<path fill-rule="evenodd" clip-rule="evenodd" d="M337.856 42.4684H340.334C340.689 42.4483 341.044 42.5039 341.376 42.6316C341.708 42.7593 342.009 42.9562 342.261 43.2094C342.512 43.4626 342.707 43.7665 342.834 44.101C342.961 44.4356 343.016 44.7933 342.996 45.1508V55.603C342.996 56.3892 342.721 56.6667 341.94 56.6667H298.113C297.287 56.6667 297.012 56.3892 297.012 55.5567V45.1971C296.976 44.8298 297.022 44.4592 297.145 44.1118C297.269 43.7644 297.467 43.449 297.726 43.188C297.985 42.9271 298.298 42.7273 298.643 42.6028C298.987 42.4784 299.355 42.4325 299.719 42.4684H302.152V28.7789C302.077 28.1649 302.227 27.5445 302.573 27.0337C302.919 26.5229 303.438 26.1569 304.033 26.004H304.859H335.194C335.549 25.9839 335.904 26.0395 336.236 26.1672C336.568 26.2949 336.869 26.4918 337.121 26.745C337.372 26.9982 337.567 27.302 337.694 27.6366C337.821 27.9711 337.876 28.3289 337.856 28.6864V42.5609V42.4684ZM341.298 54.9555V45.2433C341.298 44.4571 341.023 44.1796 340.197 44.1796H299.811C298.939 44.1796 298.71 44.1796 298.71 45.2896V54.9555H341.298ZM336.158 42.4684V28.8252C336.158 27.9464 335.883 27.7152 335.011 27.7152H304.997C304.125 27.7152 303.85 27.7152 303.85 28.8252V42.6997H306.19V36.2711C306.19 35.4849 306.19 35.2537 307.108 35.2537H317.48C318.26 35.2537 318.581 35.5312 318.581 36.3174V42.4684H321.427V36.2711C321.427 35.5312 321.748 35.2074 322.482 35.2074H332.946C333.68 35.2074 333.955 35.4849 333.955 36.2249V42.4684H336.158ZM316.837 36.9649H307.659V42.4684H316.837V36.9649ZM332.257 36.9649H323.079V42.4684H332.257V36.9649Z" fill="white"/>
<path d="M56.5832 56.2291H25.4165C24.8357 56.2291 24.354 55.7475 24.354 55.1666C24.354 54.5858 24.8357 54.1041 25.4165 54.1041H56.5832C57.164 54.1041 57.6457 54.5858 57.6457 55.1666C57.6457 55.7475 57.164 56.2291 56.5832 56.2291Z" fill="white"/>
<path d="M52.022 56.2434C51.4411 56.2434 50.9595 55.7617 50.9595 55.1809V48.8625C50.9595 48.2817 51.4411 47.8 52.022 47.8C52.6028 47.8 53.0845 48.2817 53.0845 48.8625V55.1809C53.0845 55.7617 52.617 56.2434 52.022 56.2434Z" fill="white"/>
<path d="M52.0503 49.925C49.7411 49.925 47.8711 48.055 47.8711 45.7458V42.53C47.8711 40.2208 49.7411 38.3508 52.0503 38.3508C54.3594 38.3508 56.2295 40.2208 56.2295 42.53V45.7458C56.2295 48.055 54.3594 49.925 52.0503 49.925ZM52.0503 40.49C50.9169 40.49 49.9961 41.4109 49.9961 42.5442V45.76C49.9961 46.8933 50.9169 47.8142 52.0503 47.8142C53.1836 47.8142 54.1045 46.8933 54.1045 45.76V42.5442C54.1045 41.4109 53.1836 40.49 52.0503 40.49Z" fill="white"/>
<path d="M44.2579 56.2291C43.6771 56.2291 43.1954 55.7475 43.1954 55.1666V32.5425C43.1954 30.29 42.2463 29.3267 40.0363 29.3267H31.2104C28.9863 29.3267 28.0229 30.29 28.0229 32.5425V55.1666C28.0229 55.7475 27.5413 56.2291 26.9604 56.2291C26.3796 56.2291 25.8979 55.7475 25.8979 55.1666V32.5425C25.8979 29.1 27.7821 27.2017 31.2104 27.2017H40.0363C43.4504 27.2017 45.3204 29.1 45.3204 32.5425V55.1666C45.3204 55.7475 44.8387 56.2291 44.2579 56.2291Z" fill="white"/>
<path d="M39.2288 36.75H32.2163C31.6355 36.75 31.1538 36.2683 31.1538 35.6875C31.1538 35.1067 31.6355 34.625 32.2163 34.625H39.2288C39.8097 34.625 40.2913 35.1067 40.2913 35.6875C40.2913 36.2683 39.8097 36.75 39.2288 36.75Z" fill="white"/>
<path d="M39.2288 42.0625H32.2163C31.6355 42.0625 31.1538 41.5808 31.1538 41C31.1538 40.4192 31.6355 39.9375 32.2163 39.9375H39.2288C39.8097 39.9375 40.2913 40.4192 40.2913 41C40.2913 41.5808 39.8097 42.0625 39.2288 42.0625Z" fill="white"/>
<path d="M35.6875 56.2292C35.1067 56.2292 34.625 55.7476 34.625 55.1667V49.8542C34.625 49.2734 35.1067 48.7917 35.6875 48.7917C36.2683 48.7917 36.75 49.2734 36.75 49.8542V55.1667C36.75 55.7476 36.2683 56.2292 35.6875 56.2292Z" fill="white"/>
<path d="M185.475 54.115C184.83 54.115 184.185 53.98 183.66 53.725L175.785 49.78C175.335 49.555 174.45 49.57 174.015 49.825L170.475 51.85C168.945 52.72 167.37 52.84 166.185 52.135C164.985 51.445 164.31 50.035 164.31 48.265V33.685C164.31 32.32 165.21 30.775 166.395 30.1L172.89 26.38C173.985 25.75 175.65 25.705 176.775 26.275L184.65 30.22C185.1 30.445 185.97 30.415 186.42 30.175L189.945 28.165C191.475 27.295 193.05 27.175 194.235 27.88C195.435 28.57 196.11 29.98 196.11 31.75V46.345C196.11 47.71 195.21 49.255 194.025 49.93L187.53 53.65C186.96 53.95 186.21 54.115 185.475 54.115ZM174.96 47.38C175.605 47.38 176.25 47.515 176.775 47.77L184.65 51.715C185.1 51.94 185.97 51.91 186.42 51.67L192.915 47.95C193.395 47.68 193.86 46.87 193.86 46.33V31.735C193.86 30.79 193.59 30.085 193.095 29.815C192.615 29.545 191.865 29.65 191.055 30.115L187.53 32.125C186.435 32.755 184.77 32.8 183.645 32.23L175.77 28.285C175.32 28.06 174.45 28.09 174 28.33L167.505 32.05C167.025 32.32 166.56 33.13 166.56 33.685V48.28C166.56 49.225 166.83 49.93 167.31 50.2C167.79 50.485 168.54 50.365 169.365 49.9L172.89 47.89C173.475 47.545 174.225 47.38 174.96 47.38Z" fill="#005770"/>
<path d="M174.84 48.625C174.225 48.625 173.715 48.115 173.715 47.5V28C173.715 27.385 174.225 26.875 174.84 26.875C175.455 26.875 175.965 27.385 175.965 28V47.5C175.965 48.115 175.455 48.625 174.84 48.625Z" fill="#005770"/>
<path d="M185.595 53.1249C184.98 53.1249 184.47 52.6149 184.47 51.9999V31.9299C184.47 31.3149 184.98 30.8049 185.595 30.8049C186.21 30.8049 186.72 31.3149 186.72 31.9299V51.9999C186.72 52.6149 186.21 53.1249 185.595 53.1249Z" fill="#005770"/>
</svg>
