<svg width="15" height="15" viewBox="0 0 15 15" fill="none" xmlns="http://www.w3.org/2000/svg">
<g clip-path="url(#clip0_3646_26942)">
<path d="M10.0032 14.5H1.30477C1.13528 14.5048 0.96647 14.4778 0.808369 14.4204C0.650267 14.363 0.506091 14.2764 0.384397 14.1659C0.262703 14.0553 0.165969 13.923 0.0999375 13.7768C0.0339058 13.6306 -7.8931e-05 13.4734 1.37654e-07 13.3147V2.18532C1.37654e-07 1.87095 0.133393 1.56946 0.370835 1.34717C0.608276 1.12488 0.930315 1 1.26611 1H13.7339C14.0697 1 14.3917 1.12488 14.6292 1.34717C14.8666 1.56946 15 1.87095 15 2.18532V10.3288C15 10.644 14.8669 10.9464 14.6298 11.1701C14.3926 11.3938 14.0706 11.5207 13.7339 11.5231H11.5979C11.5185 11.5231 11.4423 11.5527 11.3861 11.6053C11.3299 11.6579 11.2983 11.7292 11.2983 11.8036V13.2785C11.3022 13.4391 11.2715 13.5989 11.2079 13.7481C11.1444 13.8974 11.0493 14.0331 10.9283 14.1472C10.8074 14.2612 10.6632 14.3513 10.5042 14.4119C10.3452 14.4725 10.1748 14.5025 10.0032 14.5V14.5ZM1.26611 1.90483C1.18665 1.90483 1.11044 1.93438 1.05425 1.98698C0.998061 2.03958 0.966495 2.11093 0.966495 2.18532V13.3147C0.966495 13.3891 0.998061 13.4604 1.05425 13.513C1.11044 13.5656 1.18665 13.5952 1.26611 13.5952H9.96456C10.0047 13.5964 10.0447 13.59 10.0822 13.5765C10.1197 13.5629 10.1538 13.5425 10.1827 13.5163C10.2115 13.4901 10.2345 13.4588 10.2501 13.4242C10.2658 13.3895 10.2739 13.3523 10.2738 13.3147V11.8579C10.271 11.6961 10.3036 11.5354 10.3697 11.3858C10.4357 11.2362 10.5338 11.1008 10.6579 10.9881C10.7819 10.8753 10.9293 10.7876 11.091 10.7302C11.2527 10.6728 11.4252 10.6471 11.5979 10.6545H13.7532C13.7934 10.6545 13.8332 10.647 13.8702 10.6323C13.9072 10.6176 13.9406 10.5962 13.9686 10.5692C13.9965 10.5422 14.0184 10.5102 14.0329 10.4751C14.0473 10.44 14.0541 10.4025 14.0528 10.3649V2.22151C14.0587 2.18019 14.0547 2.13816 14.041 2.09848C14.0273 2.0588 14.0044 2.02248 13.9738 1.99214C13.9433 1.96181 13.9059 1.93824 13.8644 1.92313C13.8229 1.90803 13.7783 1.90177 13.7339 1.90483H1.26611Z" fill="#005770"/>
<path d="M9.74271 9.35153C9.74271 9.56869 9.57841 9.66822 9.35611 9.66822C9.13382 9.66822 8.98885 9.56869 8.98885 9.35153V6.88136C8.98885 6.22083 8.78588 5.84986 8.19632 5.84986C8.00007 5.84966 7.80727 5.89812 7.63752 5.9903C7.46776 6.08247 7.32709 6.21509 7.22982 6.37465C7.08986 6.58383 7.01305 6.8246 7.00753 7.07137V9.35153C7.00753 9.56869 6.85289 9.66822 6.6306 9.66822C6.4083 9.66822 6.26333 9.56869 6.26333 9.35153V6.88136C6.26333 6.22083 6.06037 5.84986 5.4708 5.84986C5.28601 5.85524 5.10592 5.90564 4.94829 5.99608C4.79066 6.08653 4.66095 6.21389 4.57196 6.36561C4.41998 6.58977 4.3426 6.85118 4.34967 7.11661V9.35153C4.35315 9.39635 4.34579 9.44132 4.32812 9.4831C4.31046 9.52488 4.28295 9.56238 4.24764 9.59282C4.21234 9.62327 4.17015 9.64586 4.12423 9.65891C4.0783 9.67196 4.02982 9.67515 3.9824 9.66822C3.75044 9.66822 3.60547 9.56869 3.60547 9.35153V5.58746C3.60547 5.38839 3.76011 5.28886 3.99207 5.28886C4.03708 5.28372 4.08275 5.28761 4.12602 5.3003C4.1693 5.31298 4.20919 5.33416 4.24303 5.36241C4.27687 5.39067 4.30389 5.42536 4.32228 5.46417C4.34067 5.50297 4.35 5.545 4.34967 5.58746V5.75032C4.33844 5.87498 4.31907 5.99887 4.29168 6.1213C4.37936 5.85028 4.56085 5.61427 4.80758 5.45045C5.05431 5.28663 5.35224 5.20432 5.65444 5.21648C5.93613 5.17739 6.22294 5.24379 6.45269 5.40131C6.68245 5.55882 6.83665 5.79475 6.88189 6.05797C6.99925 5.79153 7.20361 5.56666 7.46574 5.41552C7.72786 5.26438 8.03432 5.19471 8.34129 5.21648C9.30779 5.21648 9.70405 5.75937 9.70405 6.70944L9.74271 9.35153Z" fill="#005770"/>
<path d="M11.1044 4.97219H10.5148C10.5858 4.89287 10.6708 4.82554 10.7661 4.77313L10.8918 4.70074C10.9974 4.65931 11.0881 4.59042 11.1532 4.50222C11.2183 4.41403 11.255 4.31022 11.259 4.20309C11.257 4.13594 11.2398 4.06995 11.2088 4.00939C11.1777 3.94884 11.1334 3.89507 11.0788 3.85156C11.0241 3.80805 10.9603 3.77579 10.8914 3.75685C10.8226 3.73791 10.7503 3.73272 10.6791 3.74162C10.5092 3.73565 10.3432 3.79067 10.2152 3.89544C10.1413 3.97307 10.0882 4.06615 10.0606 4.16689V4.16689C10.0623 4.20897 10.0797 4.24916 10.1097 4.28054C10.1397 4.31192 10.1804 4.33252 10.2249 4.33881C10.2734 4.34777 10.3237 4.33984 10.3664 4.31652C10.4091 4.29319 10.4413 4.25608 10.4568 4.21213C10.4568 4.10355 10.5245 4.04926 10.6695 4.04926C10.8144 4.04926 10.8531 4.04926 10.8531 4.15784C10.8531 4.26642 10.8531 4.27547 10.6405 4.38405L10.5148 4.46548C10.3488 4.55264 10.2117 4.68102 10.1186 4.83646C10.0759 4.91234 10.0496 4.99536 10.0412 5.08077C10.0399 5.10844 10.0447 5.13607 10.0554 5.16191C10.066 5.18774 10.0824 5.2112 10.1033 5.23079C10.1242 5.25038 10.1493 5.26566 10.1769 5.27566C10.2045 5.28566 10.234 5.29017 10.2635 5.28888H11.1044C11.1557 5.28888 11.2048 5.26981 11.2411 5.23587C11.2773 5.20194 11.2977 5.15591 11.2977 5.10791C11.2977 5.05992 11.2773 5.01389 11.2411 4.97995C11.2048 4.94601 11.1557 4.92695 11.1044 4.92695V4.97219Z" fill="#005770"/>
</g>
<defs>
<clipPath id="clip0_3646_26942">
<rect width="15" height="13.5" fill="white" transform="translate(0 1)"/>
</clipPath>
</defs>
</svg>
