<svg width="15" height="15" viewBox="0 0 15 15" fill="none" xmlns="http://www.w3.org/2000/svg">
<path fill-rule="evenodd" clip-rule="evenodd" d="M13.3226 8.37014H14.1307C14.2464 8.36358 14.3622 8.38172 14.4704 8.42336C14.5787 8.465 14.677 8.5292 14.7589 8.61177C14.8409 8.69434 14.9046 8.79341 14.9459 8.9025C14.9872 9.0116 15.0052 9.12825 14.9987 9.24483V12.6531C14.9987 12.9095 14.9089 13 14.6545 13H0.362996C0.0936274 13 0.00383778 12.9095 0.00383778 12.6381V9.25992C-0.00778453 9.14016 0.00706932 9.0193 0.0473312 8.90603C0.087593 8.79275 0.152262 8.68988 0.236689 8.60479C0.321116 8.51971 0.423201 8.45454 0.535605 8.41397C0.64801 8.37339 0.767939 8.35843 0.886769 8.37014H1.67991V3.90617C1.65551 3.70595 1.70434 3.50363 1.81728 3.33707C1.93021 3.17052 2.09951 3.05115 2.29347 3.00131H2.56284H12.4547C12.5703 2.99475 12.6861 3.01289 12.7944 3.05453C12.9026 3.09617 13.0009 3.16037 13.0829 3.24294C13.1648 3.32551 13.2285 3.42458 13.2698 3.53367C13.3111 3.64276 13.3291 3.75942 13.3226 3.876V8.4003V8.37014ZM14.445 12.442V9.275C14.445 9.01862 14.3552 8.92813 14.0858 8.92813H0.916699C0.632365 8.92813 0.55754 8.92813 0.55754 9.29008V12.442H14.445ZM12.7689 8.37014V3.92125C12.7689 3.63471 12.6791 3.5593 12.3948 3.5593H2.60774C2.3234 3.5593 2.23361 3.5593 2.23361 3.92125V8.44554H2.99682V6.34929C2.99682 6.09291 2.99682 6.0175 3.29612 6.0175H6.6782C6.9326 6.0175 7.03736 6.10799 7.03736 6.36437V8.37014H7.96518V6.34929C7.96518 6.10799 8.06994 6.00242 8.30938 6.00242H11.7214C11.9608 6.00242 12.0506 6.09291 12.0506 6.3342V8.37014H12.7689ZM6.46869 6.5755H3.4757V8.37014H6.46869V6.5755ZM11.4969 6.5755H8.50392V8.37014H11.4969V6.5755Z" fill="#005770"/>
</svg>
