<svg width="15" height="15" viewBox="0 0 15 15" fill="none" xmlns="http://www.w3.org/2000/svg">
<path fill-rule="evenodd" clip-rule="evenodd" d="M12.9158 5.44911H6.35973C6.35779 5.41149 6.35779 5.37381 6.35973 5.33619C6.45793 5.04406 6.64906 4.7921 6.90392 4.61879C7.15878 4.44549 7.46336 4.36037 7.77114 4.37643C7.95671 4.39051 8.14308 4.39051 8.32865 4.37643C8.47922 4.35435 8.62377 4.30205 8.75362 4.22269C8.88346 4.14333 8.99593 4.03854 9.08426 3.91462C9.17258 3.7907 9.23495 3.6502 9.26761 3.50157C9.30027 3.35294 9.30254 3.19924 9.2743 3.0497C9.17676 2.35534 8.82429 1.72214 8.28553 1.27339C7.74677 0.824638 7.06027 0.592459 6.35973 0.622065C5.73023 0.659913 5.13033 0.90239 4.65134 1.31259C4.17234 1.72279 3.84048 2.27826 3.70626 2.89445C3.65601 3.14066 3.63001 3.39121 3.62864 3.6425V14.3199H3.00056C3.00056 14.2775 3.00056 14.2352 3.00056 14.1999V3.61427C2.987 2.84454 3.22206 2.09097 3.67085 1.46547C4.11963 0.839972 4.7582 0.375902 5.4917 0.142184C5.96308 0.00251751 6.45885 -0.0348186 6.94583 0.0326756C7.4328 0.10017 7.89974 0.270936 8.31536 0.533539C8.73098 0.796141 9.08569 1.14452 9.35574 1.55534C9.62579 1.96616 9.80495 2.42994 9.88121 2.91562C9.88121 3.06381 9.91649 3.21201 9.93061 3.35316C9.95565 3.60759 10.0738 3.84383 10.2623 4.01652C10.508 4.24939 10.8341 4.37834 11.1727 4.37643C11.3959 4.36221 11.6198 4.36221 11.8431 4.37643C12.1018 4.4324 12.3396 4.56002 12.5293 4.74471C12.719 4.92939 12.8529 5.16371 12.9158 5.42088" fill="#005770"/>
<path d="M13.0003 5.92908H6.28906V6.50776H13.0003V5.92908Z" fill="#005770"/>
<path fill-rule="evenodd" clip-rule="evenodd" d="M8.18742 12.0404C8.18742 12.2238 8.13802 12.2662 7.94043 12.2662C7.74283 12.2662 7.7146 12.2168 7.72166 12.0192C7.72871 11.8216 7.764 11.8004 7.95454 11.8004C8.14508 11.8004 8.18742 11.8428 8.18742 12.0404" fill="#005770"/>
<path fill-rule="evenodd" clip-rule="evenodd" d="M7.93988 10.862C8.13042 10.862 8.16571 10.862 8.16571 11.109C8.16571 11.356 8.11631 11.3348 7.92577 11.3348C7.73523 11.3348 7.69289 11.2783 7.69994 11.0878C7.707 10.8973 7.74228 10.862 7.93988 10.862Z" fill="#005770"/>
<path fill-rule="evenodd" clip-rule="evenodd" d="M12.4646 9.92328C12.6551 9.92328 12.6974 9.96562 12.6974 10.1632C12.6974 10.3608 12.641 10.3961 12.4646 10.3961C12.2881 10.3961 12.2246 10.3467 12.2246 10.1562C12.2246 9.96562 12.2246 9.92328 12.4646 9.92328Z" fill="#005770"/>
<path fill-rule="evenodd" clip-rule="evenodd" d="M7.72266 12.972C7.72266 12.7814 7.72266 12.7391 7.95554 12.7391C8.18842 12.7391 8.18842 12.7814 8.18842 12.979C8.18842 13.1766 8.14608 13.2049 7.9626 13.2049C7.77911 13.2049 7.72266 13.1625 7.72266 12.972" fill="#005770"/>
<path fill-rule="evenodd" clip-rule="evenodd" d="M7.93991 9.92328C8.13751 9.92328 8.1728 9.92328 8.1728 10.1632C8.1728 10.4032 8.1234 10.3961 7.93991 10.3961C7.75643 10.3961 7.70703 10.3396 7.70703 10.1562C7.70703 9.97268 7.74937 9.92328 7.93991 9.92328Z" fill="#005770"/>
<path fill-rule="evenodd" clip-rule="evenodd" d="M12.4646 8.98456C12.6551 8.98456 12.6974 9.0269 12.6974 9.2245C12.6974 9.4221 12.641 9.45738 12.4646 9.45738C12.2881 9.45738 12.2246 9.40798 12.2246 9.21744C12.2246 9.0269 12.2246 8.98456 12.4646 8.98456Z" fill="#005770"/>
<path fill-rule="evenodd" clip-rule="evenodd" d="M7.72166 9.20333C7.72166 9.01984 7.764 8.98456 7.97571 8.98456C8.18742 8.98456 8.18742 9.0269 8.18742 9.23861C8.18742 9.45033 8.13802 9.45738 7.94043 9.45738C7.74283 9.45738 7.7146 9.40093 7.72166 9.20333" fill="#005770"/>
<path fill-rule="evenodd" clip-rule="evenodd" d="M12.2246 8.27185C12.2246 8.08131 12.2246 8.04602 12.4716 8.04602C12.7186 8.04602 12.6974 8.08836 12.6974 8.2789C12.6974 8.46945 12.641 8.51884 12.4575 8.51884C12.274 8.51884 12.2246 8.46945 12.2246 8.27185Z" fill="#005770"/>
<path fill-rule="evenodd" clip-rule="evenodd" d="M7.93988 7.10751C8.13042 7.10751 8.16571 7.14986 8.16571 7.35451C8.16571 7.55917 8.11631 7.58034 7.92577 7.58034C7.73523 7.58034 7.69289 7.52388 7.69994 7.33334C7.707 7.1428 7.74228 7.10751 7.93988 7.10751Z" fill="#005770"/>
<path fill-rule="evenodd" clip-rule="evenodd" d="M12.4646 7.10751C12.6551 7.10751 12.6974 7.14986 12.6974 7.34745C12.6974 7.54505 12.641 7.58034 12.4646 7.58034C12.2881 7.58034 12.2246 7.53094 12.2246 7.3404C12.2246 7.14986 12.2246 7.10751 12.4646 7.10751Z" fill="#005770"/>
<path fill-rule="evenodd" clip-rule="evenodd" d="M8.18742 8.28596C8.18742 8.46945 8.13802 8.51884 7.94043 8.51884C7.74283 8.51884 7.7146 8.46945 7.72166 8.26479C7.72871 8.06013 7.764 8.04602 7.95454 8.04602C8.14508 8.04602 8.18742 8.08131 8.18742 8.28596" fill="#005770"/>
<path fill-rule="evenodd" clip-rule="evenodd" d="M8.18719 13.9106C8.18719 14.094 8.13779 14.1505 7.94725 14.1434C7.75671 14.1364 7.71437 14.094 7.72143 13.8964C7.72848 13.6988 7.76377 13.6777 7.95431 13.6777C8.14485 13.6777 8.18719 13.713 8.18719 13.9106" fill="#005770"/>
<path fill-rule="evenodd" clip-rule="evenodd" d="M6.83271 8.98456C7.02326 8.98456 7.0656 9.0269 7.0656 9.23156C7.0656 9.43621 7.00914 9.45738 6.83271 9.45738C6.65629 9.45738 6.59277 9.40798 6.59277 9.21744C6.59277 9.0269 6.59277 8.98456 6.83271 8.98456Z" fill="#005770"/>
<path fill-rule="evenodd" clip-rule="evenodd" d="M7.0656 7.3404C7.0656 7.52388 7.0162 7.58034 6.82566 7.58034C6.63512 7.58034 6.59277 7.53094 6.59277 7.3404C6.59277 7.14986 6.63512 7.10751 6.82566 7.10751C7.0162 7.10751 7.0656 7.14986 7.0656 7.3404Z" fill="#005770"/>
<path fill-rule="evenodd" clip-rule="evenodd" d="M6.83271 8.04602C7.02326 8.04602 7.0656 8.08836 7.0656 8.29302C7.0656 8.49767 7.00914 8.51884 6.83271 8.51884C6.65629 8.51884 6.59277 8.46945 6.59277 8.2789C6.59277 8.08836 6.59277 8.04602 6.83271 8.04602Z" fill="#005770"/>
<path fill-rule="evenodd" clip-rule="evenodd" d="M6.59277 10.1562C6.59277 9.95856 6.59277 9.92328 6.83271 9.92328C7.07265 9.92328 7.0656 9.97268 7.0656 10.1491C7.0656 10.3255 7.0162 10.3961 6.83271 10.3961C6.64923 10.3961 6.59277 10.3467 6.59277 10.1562Z" fill="#005770"/>
<path fill-rule="evenodd" clip-rule="evenodd" d="M6.59277 12.0333C6.59277 11.8357 6.59277 11.8004 6.83271 11.8004C7.07265 11.8004 7.0656 11.8428 7.0656 12.0404C7.0656 12.238 7.0162 12.2662 6.83271 12.2662C6.64923 12.2662 6.59277 12.2238 6.59277 12.0333" fill="#005770"/>
<path fill-rule="evenodd" clip-rule="evenodd" d="M9.07663 11.8004C9.27423 11.8004 9.31657 11.8357 9.30952 12.0404C9.30246 12.245 9.26718 12.2732 9.06958 12.2732C8.87198 12.2732 8.84375 12.2168 8.84375 12.0404C8.84375 11.8639 8.88609 11.8004 9.07663 11.8004Z" fill="#005770"/>
<path fill-rule="evenodd" clip-rule="evenodd" d="M11.1016 12.0262C11.1016 11.8357 11.1016 11.8004 11.3415 11.8004C11.5814 11.8004 11.5673 11.8428 11.5673 12.0262C11.5673 12.2097 11.5179 12.2732 11.3274 12.2732C11.1368 12.2732 11.1016 12.2238 11.1016 12.0262Z" fill="#005770"/>
<path fill-rule="evenodd" clip-rule="evenodd" d="M12.2246 13.9035C12.2246 13.713 12.2246 13.6777 12.4716 13.6777C12.7186 13.6777 12.6974 13.72 12.6974 13.9106C12.6974 14.1011 12.641 14.1434 12.4575 14.1434C12.274 14.1434 12.2246 14.094 12.2246 13.9035" fill="#005770"/>
<path fill-rule="evenodd" clip-rule="evenodd" d="M12.4646 11.8004C12.6551 11.8004 12.6974 11.8428 12.6974 12.0474C12.6974 12.2521 12.641 12.2732 12.4575 12.2732C12.274 12.2732 12.2246 12.2238 12.2246 12.0262C12.2246 11.8286 12.2246 11.8004 12.4646 11.8004Z" fill="#005770"/>
<path fill-rule="evenodd" clip-rule="evenodd" d="M6.83271 12.7391C7.02326 12.7391 7.0656 12.7814 7.0656 12.979C7.0656 13.1766 7.00914 13.2119 6.83271 13.2119C6.65629 13.2119 6.59277 13.1625 6.59277 12.9649C6.59277 12.7673 6.63512 12.7391 6.83271 12.7391" fill="#005770"/>
<path fill-rule="evenodd" clip-rule="evenodd" d="M11.1016 13.9106C11.1016 13.713 11.1016 13.6777 11.3274 13.6777C11.5532 13.6777 11.5673 13.72 11.5673 13.9106C11.5673 14.1011 11.5179 14.1434 11.3415 14.1434C11.1651 14.1434 11.1016 14.1011 11.1016 13.9106Z" fill="#005770"/>
<path fill-rule="evenodd" clip-rule="evenodd" d="M6.59277 13.9035C6.59277 13.713 6.63512 13.6777 6.83977 13.6777C7.04443 13.6777 7.0656 13.72 7.0656 13.9106C7.0656 14.1011 7.0162 14.1434 6.82566 14.1434C6.63512 14.1434 6.59277 14.094 6.59277 13.9035" fill="#005770"/>
<path fill-rule="evenodd" clip-rule="evenodd" d="M9.08369 12.7391C9.28129 12.7391 9.31657 12.7744 9.30952 12.9791C9.30246 13.1837 9.26717 13.212 9.07663 13.212C8.88609 13.212 8.84375 13.1555 8.84375 12.965C8.84375 12.7744 8.88609 12.7321 9.08369 12.7391" fill="#005770"/>
<path fill-rule="evenodd" clip-rule="evenodd" d="M11.1016 12.965C11.1016 12.7744 11.1016 12.7321 11.3415 12.7391C11.5814 12.7462 11.5673 12.7815 11.5673 12.965C11.5673 13.1484 11.5179 13.2049 11.3344 13.2049C11.151 13.2049 11.1016 13.1626 11.1016 12.965Z" fill="#005770"/>
<path fill-rule="evenodd" clip-rule="evenodd" d="M12.2246 12.9649C12.2246 12.7814 12.2246 12.732 12.4646 12.739C12.7045 12.7461 12.6974 12.7814 12.6974 12.9649C12.6974 13.1484 12.648 13.2048 12.4575 13.2048C12.267 13.2048 12.2246 13.1625 12.2246 12.9649Z" fill="#005770"/>
<path fill-rule="evenodd" clip-rule="evenodd" d="M9.08369 13.6777C9.28129 13.6777 9.31657 13.713 9.30952 13.9176C9.30246 14.1223 9.26717 14.1505 9.07663 14.1505C8.88609 14.1505 8.84375 14.094 8.84375 13.9035C8.84375 13.713 8.88609 13.6777 9.08369 13.6777" fill="#005770"/>
<path fill-rule="evenodd" clip-rule="evenodd" d="M12.4646 10.862C12.6551 10.862 12.6974 10.9043 12.6974 11.1019C12.6974 11.2995 12.641 11.3348 12.4646 11.3348C12.2881 11.3348 12.2246 11.2854 12.2246 11.0949C12.2246 10.9043 12.2246 10.862 12.4646 10.862Z" fill="#005770"/>
<path fill-rule="evenodd" clip-rule="evenodd" d="M11.3415 10.862C11.525 10.862 11.5673 10.9043 11.5673 11.0949C11.5673 11.2854 11.5179 11.3348 11.3274 11.3348C11.1368 11.3348 11.1016 11.2854 11.1016 11.0878C11.1016 10.8902 11.1016 10.862 11.3415 10.862Z" fill="#005770"/>
<path fill-rule="evenodd" clip-rule="evenodd" d="M11.3274 7.10751C11.525 7.10751 11.5673 7.14986 11.5673 7.3404C11.5673 7.53094 11.5179 7.58034 11.3274 7.58034C11.1368 7.58034 11.1016 7.53094 11.1016 7.34745C11.1016 7.16397 11.1016 7.10751 11.3274 7.10751Z" fill="#005770"/>
<path fill-rule="evenodd" clip-rule="evenodd" d="M6.59277 11.0807C6.59277 10.8973 6.63512 10.862 6.83977 10.862C7.04443 10.862 7.0656 10.9043 7.0656 11.0949C7.0656 11.2854 7.0162 11.3348 6.82566 11.3348C6.63512 11.3348 6.59277 11.2783 6.59277 11.0807Z" fill="#005770"/>
<path fill-rule="evenodd" clip-rule="evenodd" d="M11.1025 10.142C11.1025 9.95856 11.1025 9.92328 11.3495 9.92328C11.5965 9.92328 11.5753 9.97268 11.5683 10.1632C11.5612 10.3538 11.5189 10.3961 11.3213 10.3961C11.1237 10.3961 11.0955 10.3396 11.1025 10.142Z" fill="#005770"/>
<path fill-rule="evenodd" clip-rule="evenodd" d="M11.3344 8.04602C11.525 8.04602 11.5744 8.08836 11.5673 8.28596C11.5603 8.48356 11.5179 8.51884 11.3344 8.51884C11.151 8.51884 11.1016 8.46945 11.1016 8.2789C11.1016 8.08836 11.1016 8.04602 11.3344 8.04602Z" fill="#005770"/>
<path fill-rule="evenodd" clip-rule="evenodd" d="M11.1023 9.21039C11.1023 9.01984 11.1023 8.98456 11.3422 8.98456C11.5822 8.98456 11.5681 9.0269 11.5681 9.21744C11.5681 9.40798 11.5187 9.45738 11.3281 9.45738C11.1376 9.45738 11.0952 9.40798 11.1023 9.21039Z" fill="#005770"/>
<path fill-rule="evenodd" clip-rule="evenodd" d="M9.30952 7.34745C9.30952 7.53094 9.26718 7.58034 9.06958 7.57328C8.87198 7.56622 8.84375 7.53094 8.84375 7.32628C8.84375 7.12163 8.89315 7.10751 9.07663 7.10751C9.26012 7.10751 9.31657 7.14986 9.30952 7.34745Z" fill="#005770"/>
<path fill-rule="evenodd" clip-rule="evenodd" d="M9.30952 8.2789C9.30952 8.46945 9.26717 8.51884 9.07663 8.51884C8.88609 8.51884 8.84375 8.46239 8.84375 8.27185C8.84375 8.08131 8.89315 8.04602 9.07663 8.04602C9.26012 8.04602 9.30952 8.08131 9.30952 8.2789Z" fill="#005770"/>
<path fill-rule="evenodd" clip-rule="evenodd" d="M9.30952 9.21039C9.30952 9.40798 9.26717 9.45738 9.08369 9.45738C8.90021 9.45738 8.84375 9.40093 8.84375 9.21744C8.84375 9.03396 8.88609 8.98456 9.06958 8.98456C9.25306 8.98456 9.30952 9.0269 9.30952 9.21039Z" fill="#005770"/>
<path fill-rule="evenodd" clip-rule="evenodd" d="M9.30952 10.1703C9.30952 10.3538 9.26718 10.3961 9.06958 10.3891C8.87198 10.382 8.84375 10.3397 8.84375 10.1421C8.84375 9.94449 8.89315 9.91626 9.09075 9.92332C9.28835 9.93037 9.31657 9.96566 9.30952 10.1703Z" fill="#005770"/>
<path fill-rule="evenodd" clip-rule="evenodd" d="M9.09075 10.862C9.28129 10.862 9.31657 10.862 9.30952 11.109C9.30246 11.356 9.26717 11.3348 9.07663 11.3348C8.88609 11.3348 8.84375 11.2783 8.84375 11.0878C8.84375 10.8973 8.89315 10.862 9.09075 10.862Z" fill="#005770"/>
<path fill-rule="evenodd" clip-rule="evenodd" d="M10.2126 12.739C10.3961 12.739 10.4384 12.7813 10.4384 12.9719C10.4384 13.1624 10.3961 13.2118 10.2055 13.2118C10.015 13.2118 9.97266 13.1624 9.97266 12.9648C9.97266 12.7672 10.015 12.7319 10.2126 12.739" fill="#005770"/>
<path fill-rule="evenodd" clip-rule="evenodd" d="M10.2055 8.98456C10.4031 8.98456 10.4455 8.98456 10.4384 9.2245C10.4314 9.46444 10.389 9.45738 10.1985 9.45738C10.0079 9.45738 9.97266 9.40093 9.97266 9.21744C9.97266 9.03396 10.015 8.98456 10.2055 8.98456Z" fill="#005770"/>
<path fill-rule="evenodd" clip-rule="evenodd" d="M10.2126 9.92328C10.3961 9.92328 10.4384 9.96562 10.4384 10.1562C10.4384 10.3467 10.3961 10.3961 10.2055 10.3961C10.015 10.3961 9.97266 10.3467 9.97266 10.1491C9.97266 9.95151 10.015 9.92328 10.2126 9.92328Z" fill="#005770"/>
<path fill-rule="evenodd" clip-rule="evenodd" d="M10.2126 8.04602C10.3961 8.04602 10.4384 8.08836 10.4384 8.2789C10.4384 8.46945 10.3961 8.51884 10.2055 8.51884C10.015 8.51884 9.97266 8.46239 9.97266 8.27185C9.97266 8.08131 10.015 8.04602 10.2126 8.04602Z" fill="#005770"/>
<path fill-rule="evenodd" clip-rule="evenodd" d="M10.2055 11.8004C10.4031 11.8004 10.4455 11.8357 10.4384 12.0404C10.4314 12.245 10.389 12.2732 10.2126 12.2732C10.0362 12.2732 9.97266 12.2238 9.97266 12.0333C9.97266 11.8428 10.015 11.8004 10.2055 11.8004Z" fill="#005770"/>
<path fill-rule="evenodd" clip-rule="evenodd" d="M9.97266 13.9106C9.97266 13.72 9.97266 13.6777 10.2126 13.6777C10.4525 13.6777 10.4455 13.72 10.4384 13.9176C10.4314 14.1152 10.389 14.1434 10.2055 14.1434C10.0221 14.1434 9.97266 14.094 9.97266 13.9106" fill="#005770"/>
<path fill-rule="evenodd" clip-rule="evenodd" d="M9.97266 7.33334C9.97266 7.14986 10.015 7.10751 10.2197 7.10751C10.4243 7.10751 10.4455 7.14986 10.4384 7.34745C10.4314 7.54505 10.389 7.58034 10.1985 7.58034C10.0079 7.58034 9.97266 7.52388 9.97266 7.33334Z" fill="#005770"/>
<path fill-rule="evenodd" clip-rule="evenodd" d="M10.2126 10.862C10.3961 10.862 10.4384 10.862 10.4384 11.0878C10.4384 11.3136 10.3961 11.3348 10.2055 11.3348C10.015 11.3348 9.97266 11.2783 9.97266 11.0878C9.97266 10.8973 10.015 10.862 10.2126 10.862Z" fill="#005770"/>
</svg>
