<svg width="80" height="80" viewBox="0 0 80 80" fill="none" xmlns="http://www.w3.org/2000/svg">
<circle cx="40" cy="40" r="39" fill="#005770" stroke="white" stroke-width="2"/>
<path fill-rule="evenodd" clip-rule="evenodd" d="M55.527 41.3204H57.682C57.9905 41.3029 58.2992 41.3513 58.5878 41.4623C58.8765 41.5733 59.1387 41.7445 59.3571 41.9647C59.5756 42.1849 59.7455 42.4491 59.8557 42.74C59.9659 43.0309 60.0139 43.342 59.9965 43.6529V52.7417C59.9965 53.4254 59.7571 53.6667 59.0787 53.6667H20.968C20.2497 53.6667 20.0102 53.4254 20.0102 52.7015V43.6931C19.9792 43.3738 20.0189 43.0515 20.1262 42.7494C20.2336 42.4473 20.406 42.173 20.6312 41.9461C20.8563 41.7192 21.1285 41.5454 21.4283 41.4372C21.728 41.3291 22.0478 41.2891 22.3647 41.3204H24.4798V29.4164C24.4147 28.8825 24.5449 28.343 24.8461 27.8989C25.1472 27.4547 25.5987 27.1364 26.1159 27.0035H26.8342H53.2124C53.5209 26.986 53.8296 27.0344 54.1183 27.1454C54.407 27.2565 54.6691 27.4277 54.8876 27.6478C55.1061 27.868 55.276 28.1322 55.3862 28.4231C55.4964 28.714 55.5444 29.0251 55.527 29.336V41.4008V41.3204ZM58.52 52.1787V43.7333C58.52 43.0497 58.2806 42.8084 57.5622 42.8084H22.4445C21.6863 42.8084 21.4868 42.8084 21.4868 43.7735V52.1787H58.52ZM54.0505 41.3204V29.4567C54.0505 28.6926 53.811 28.4915 53.0528 28.4915H26.954C26.1957 28.4915 25.9563 28.4915 25.9563 29.4567V41.5214H27.9915V35.9314C27.9915 35.2478 27.9915 35.0467 28.7897 35.0467H37.8085C38.4869 35.0467 38.7663 35.288 38.7663 35.9716V41.3204H41.2405V35.9314C41.2405 35.288 41.5198 35.0065 42.1583 35.0065H51.257C51.8955 35.0065 52.135 35.2478 52.135 35.8912V41.3204H54.0505ZM37.2498 36.5347H29.2685V41.3204H37.2498V36.5347ZM50.6584 36.5347H42.6771V41.3204H50.6584V36.5347Z" fill="white"/>
</svg>
