<svg width="84" height="84" viewBox="0 0 84 84" fill="none" xmlns="http://www.w3.org/2000/svg">
<circle cx="42" cy="42" r="41" fill="#FBAD32" stroke="white" stroke-width="2"/>
<mask id="path-2-outside-1_3898_29163" maskUnits="userSpaceOnUse" x="17" y="18" width="53" height="42" fill="black">
<rect fill="white" x="17" y="18" width="53" height="42"/>
<path fill-rule="evenodd" clip-rule="evenodd" d="M28.8465 45.3352C28.5511 45.3279 28.26 45.2598 27.9918 45.1347C27.7071 45.0018 27.455 44.8081 27.2534 44.5672L20.4997 36.5317C19.1931 34.9762 18.3578 33.08 18.0918 31.066C17.8259 29.0521 18.1404 27.004 18.9985 25.1627C19.8566 23.3214 21.2225 21.7633 22.9357 20.6716C24.6488 19.5799 26.6381 19 28.6695 19H29.1327C31.1638 19.0003 33.1527 19.5803 34.8655 20.6719C36.5783 21.7635 37.944 23.3213 38.802 25.1623C39.66 27.0033 39.9747 29.0509 39.709 31.0646C39.4434 33.0783 38.6085 34.9742 37.3025 36.5298L31.0598 43.9575H41.1011C41.6412 43.9493 42.1775 44.0485 42.6789 44.2495C43.1803 44.4505 43.6367 44.7493 44.0215 45.1283C44.4064 45.5073 44.712 45.9591 44.9206 46.4574C45.1292 46.9556 45.2367 47.4904 45.2367 48.0306C45.2367 48.5707 45.1292 49.1055 44.9206 49.6038C44.712 50.102 44.4064 50.5538 44.0215 50.9329C43.6367 51.3119 43.1803 51.6106 42.6789 51.8116C42.1775 52.0126 41.6412 52.1119 41.1011 52.1037H40.0763C39.3624 52.1044 38.6779 52.3883 38.173 52.893C37.6681 53.3977 37.384 54.0821 37.383 54.796V55.0475C37.3837 55.7616 37.6677 56.4462 38.1726 56.9511C38.6776 57.4561 39.3622 57.7401 40.0763 57.7408H58.9348L54.4061 52.3485C53.39 51.1394 52.7403 49.6652 52.5334 48.0995C52.3265 46.5337 52.5709 44.9414 53.238 43.5099C53.9051 42.0783 54.9671 40.867 56.2991 40.0183C57.631 39.1697 59.1777 38.719 60.757 38.7192H61.1096C62.689 38.719 64.2356 39.1697 65.5676 40.0183C66.8996 40.867 67.9616 42.0783 68.6286 43.5099C69.2957 44.9414 69.5402 46.5337 69.3332 48.0995C69.1263 49.6652 68.4766 51.1394 67.4605 52.3485L62.315 58.4753C62.1455 58.6769 61.9339 58.8389 61.6952 58.9499C61.4807 59.0497 61.2489 59.1062 61.0131 59.1165C60.9869 59.1195 60.9604 59.1211 60.9337 59.1211L60.9328 59.1239H40.0763C38.9963 59.1226 37.9609 58.6931 37.1972 57.9294C36.4336 57.1657 36.004 56.1303 36.0027 55.0503V54.7989C36.0042 53.719 36.4339 52.6839 37.1976 51.9204C37.9612 51.157 38.9965 50.7275 40.0763 50.7263H41.1011C41.8156 50.7263 42.5009 50.4424 43.0062 49.9371C43.5115 49.4319 43.7953 48.7466 43.7953 48.032C43.7953 47.3174 43.5115 46.6321 43.0062 46.1269C42.5009 45.6216 41.8156 45.3377 41.1011 45.3377H28.9059C28.886 45.3377 28.8662 45.3369 28.8465 45.3352ZM28.6695 20.3783C26.9009 20.3783 25.169 20.8832 23.6774 21.8337C22.1858 22.7842 20.9966 24.1407 20.2496 25.7438C19.5025 27.347 19.2287 29.1301 19.4602 30.8835C19.6917 32.6369 20.4191 34.2878 21.5566 35.6421L28.3103 43.6777C28.3843 43.7614 28.4752 43.8284 28.5771 43.8744C28.6789 43.9203 28.7894 43.944 28.9011 43.944C29.0129 43.944 29.1233 43.9203 29.2252 43.8744C29.3271 43.8284 29.418 43.7614 29.492 43.6777L36.2456 35.6421C37.3832 34.2878 38.1105 32.6369 38.3421 30.8835C38.5736 29.1301 38.2998 27.347 37.5527 25.7438C36.8056 24.1407 35.6164 22.7842 34.1249 21.8337C32.6333 20.8832 30.9014 20.3783 29.1327 20.3783H28.6695ZM28.9012 36.1801C27.6128 36.1801 26.3533 35.798 25.282 35.0822C24.2108 34.3665 23.3758 33.3491 22.8827 32.1588C22.3896 30.9685 22.2605 29.6587 22.5118 28.395C22.7631 27.1314 23.3835 25.9706 24.2944 25.0595C25.2054 24.1484 26.3661 23.5279 27.6297 23.2764C28.8933 23.0249 30.2031 23.1538 31.3935 23.6467C32.5839 24.1397 33.6014 24.9745 34.3173 26.0457C35.0333 27.1168 35.4155 28.3762 35.4157 29.6646C35.4137 31.3918 34.7267 33.0478 33.5055 34.2692C32.2842 35.4906 30.6284 36.1778 28.9012 36.1801ZM28.9012 24.5313C27.8857 24.5313 26.893 24.8325 26.0487 25.3967C25.2043 25.9609 24.5462 26.7628 24.1577 27.701C23.7691 28.6392 23.6675 29.6716 23.8657 30.6676C24.0638 31.6635 24.5529 32.5784 25.2711 33.2964C25.9892 34.0144 26.9041 34.5033 27.9001 34.7013C28.8961 34.8993 29.9285 34.7975 30.8666 34.4087C31.8048 34.02 32.6066 33.3618 33.1706 32.5173C33.7347 31.6729 34.0356 30.6801 34.0354 29.6646C34.0337 28.3036 33.4922 26.9988 32.5297 26.0364C31.5671 25.0741 30.2623 24.5328 28.9012 24.5313ZM57.0408 41.1823C58.1512 40.4749 59.4404 40.0992 60.757 40.0995H61.1096C62.4262 40.0992 63.7155 40.4749 64.8258 41.1823C65.9362 41.8897 66.8215 42.8995 67.3776 44.0929C67.9337 45.2863 68.1374 46.6136 67.9649 47.9189C67.7923 49.2241 67.2507 50.4529 66.4036 51.4608L61.2581 57.5867C61.2185 57.6345 61.1688 57.6729 61.1125 57.6991C61.0563 57.7253 60.9949 57.7386 60.9329 57.738C60.871 57.7385 60.8097 57.7252 60.7536 57.699C60.6975 57.6728 60.648 57.6345 60.6086 57.5867L55.463 51.4608C54.616 50.4529 54.0743 49.2241 53.9018 47.9189C53.7292 46.6136 53.933 45.2863 54.4891 44.0929C55.0452 42.8995 55.9304 41.8897 57.0408 41.1823ZM60.9328 51.5496C60.0353 51.5496 59.158 51.2834 58.4117 50.7848C57.6655 50.2862 57.0839 49.5775 56.7404 48.7484C56.397 47.9192 56.3071 47.0068 56.4822 46.1266C56.6573 45.2464 57.0895 44.4378 57.7241 43.8032C58.3587 43.1686 59.1672 42.7364 60.0475 42.5613C60.9277 42.3862 61.8401 42.4761 62.6693 42.8195C63.4984 43.163 64.2071 43.7446 64.7057 44.4908C65.2043 45.2371 65.4705 46.1144 65.4705 47.0118C65.4705 48.2153 64.9924 49.3695 64.1414 50.2205C63.2904 51.0715 62.1362 51.5496 60.9328 51.5496ZM60.9328 43.8572C60.3084 43.857 59.698 44.042 59.1788 44.3887C58.6596 44.7354 58.2549 45.2284 58.0158 45.8051C57.7768 46.3819 57.7141 47.0166 57.8358 47.629C57.9575 48.2414 58.258 48.8039 58.6994 49.2454C59.1409 49.687 59.7033 49.9877 60.3156 50.1096C60.928 50.2315 61.5627 50.169 62.1395 49.9301C62.7164 49.6912 63.2094 49.2866 63.5563 48.7675C63.9032 48.2484 64.0884 47.6381 64.0884 47.0137C64.0876 46.177 63.7549 45.3747 63.1633 44.7829C62.5717 44.1911 61.7695 43.8582 60.9328 43.8572Z"/>
</mask>
<path fill-rule="evenodd" clip-rule="evenodd" d="M28.8465 45.3352C28.5511 45.3279 28.26 45.2598 27.9918 45.1347C27.7071 45.0018 27.455 44.8081 27.2534 44.5672L20.4997 36.5317C19.1931 34.9762 18.3578 33.08 18.0918 31.066C17.8259 29.0521 18.1404 27.004 18.9985 25.1627C19.8566 23.3214 21.2225 21.7633 22.9357 20.6716C24.6488 19.5799 26.6381 19 28.6695 19H29.1327C31.1638 19.0003 33.1527 19.5803 34.8655 20.6719C36.5783 21.7635 37.944 23.3213 38.802 25.1623C39.66 27.0033 39.9747 29.0509 39.709 31.0646C39.4434 33.0783 38.6085 34.9742 37.3025 36.5298L31.0598 43.9575H41.1011C41.6412 43.9493 42.1775 44.0485 42.6789 44.2495C43.1803 44.4505 43.6367 44.7493 44.0215 45.1283C44.4064 45.5073 44.712 45.9591 44.9206 46.4574C45.1292 46.9556 45.2367 47.4904 45.2367 48.0306C45.2367 48.5707 45.1292 49.1055 44.9206 49.6038C44.712 50.102 44.4064 50.5538 44.0215 50.9329C43.6367 51.3119 43.1803 51.6106 42.6789 51.8116C42.1775 52.0126 41.6412 52.1119 41.1011 52.1037H40.0763C39.3624 52.1044 38.6779 52.3883 38.173 52.893C37.6681 53.3977 37.384 54.0821 37.383 54.796V55.0475C37.3837 55.7616 37.6677 56.4462 38.1726 56.9511C38.6776 57.4561 39.3622 57.7401 40.0763 57.7408H58.9348L54.4061 52.3485C53.39 51.1394 52.7403 49.6652 52.5334 48.0995C52.3265 46.5337 52.5709 44.9414 53.238 43.5099C53.9051 42.0783 54.9671 40.867 56.2991 40.0183C57.631 39.1697 59.1777 38.719 60.757 38.7192H61.1096C62.689 38.719 64.2356 39.1697 65.5676 40.0183C66.8996 40.867 67.9616 42.0783 68.6286 43.5099C69.2957 44.9414 69.5402 46.5337 69.3332 48.0995C69.1263 49.6652 68.4766 51.1394 67.4605 52.3485L62.315 58.4753C62.1455 58.6769 61.9339 58.8389 61.6952 58.9499C61.4807 59.0497 61.2489 59.1062 61.0131 59.1165C60.9869 59.1195 60.9604 59.1211 60.9337 59.1211L60.9328 59.1239H40.0763C38.9963 59.1226 37.9609 58.6931 37.1972 57.9294C36.4336 57.1657 36.004 56.1303 36.0027 55.0503V54.7989C36.0042 53.719 36.4339 52.6839 37.1976 51.9204C37.9612 51.157 38.9965 50.7275 40.0763 50.7263H41.1011C41.8156 50.7263 42.5009 50.4424 43.0062 49.9371C43.5115 49.4319 43.7953 48.7466 43.7953 48.032C43.7953 47.3174 43.5115 46.6321 43.0062 46.1269C42.5009 45.6216 41.8156 45.3377 41.1011 45.3377H28.9059C28.886 45.3377 28.8662 45.3369 28.8465 45.3352ZM28.6695 20.3783C26.9009 20.3783 25.169 20.8832 23.6774 21.8337C22.1858 22.7842 20.9966 24.1407 20.2496 25.7438C19.5025 27.347 19.2287 29.1301 19.4602 30.8835C19.6917 32.6369 20.4191 34.2878 21.5566 35.6421L28.3103 43.6777C28.3843 43.7614 28.4752 43.8284 28.5771 43.8744C28.6789 43.9203 28.7894 43.944 28.9011 43.944C29.0129 43.944 29.1233 43.9203 29.2252 43.8744C29.3271 43.8284 29.418 43.7614 29.492 43.6777L36.2456 35.6421C37.3832 34.2878 38.1105 32.6369 38.3421 30.8835C38.5736 29.1301 38.2998 27.347 37.5527 25.7438C36.8056 24.1407 35.6164 22.7842 34.1249 21.8337C32.6333 20.8832 30.9014 20.3783 29.1327 20.3783H28.6695ZM28.9012 36.1801C27.6128 36.1801 26.3533 35.798 25.282 35.0822C24.2108 34.3665 23.3758 33.3491 22.8827 32.1588C22.3896 30.9685 22.2605 29.6587 22.5118 28.395C22.7631 27.1314 23.3835 25.9706 24.2944 25.0595C25.2054 24.1484 26.3661 23.5279 27.6297 23.2764C28.8933 23.0249 30.2031 23.1538 31.3935 23.6467C32.5839 24.1397 33.6014 24.9745 34.3173 26.0457C35.0333 27.1168 35.4155 28.3762 35.4157 29.6646C35.4137 31.3918 34.7267 33.0478 33.5055 34.2692C32.2842 35.4906 30.6284 36.1778 28.9012 36.1801ZM28.9012 24.5313C27.8857 24.5313 26.893 24.8325 26.0487 25.3967C25.2043 25.9609 24.5462 26.7628 24.1577 27.701C23.7691 28.6392 23.6675 29.6716 23.8657 30.6676C24.0638 31.6635 24.5529 32.5784 25.2711 33.2964C25.9892 34.0144 26.9041 34.5033 27.9001 34.7013C28.8961 34.8993 29.9285 34.7975 30.8666 34.4087C31.8048 34.02 32.6066 33.3618 33.1706 32.5173C33.7347 31.6729 34.0356 30.6801 34.0354 29.6646C34.0337 28.3036 33.4922 26.9988 32.5297 26.0364C31.5671 25.0741 30.2623 24.5328 28.9012 24.5313ZM57.0408 41.1823C58.1512 40.4749 59.4404 40.0992 60.757 40.0995H61.1096C62.4262 40.0992 63.7155 40.4749 64.8258 41.1823C65.9362 41.8897 66.8215 42.8995 67.3776 44.0929C67.9337 45.2863 68.1374 46.6136 67.9649 47.9189C67.7923 49.2241 67.2507 50.4529 66.4036 51.4608L61.2581 57.5867C61.2185 57.6345 61.1688 57.6729 61.1125 57.6991C61.0563 57.7253 60.9949 57.7386 60.9329 57.738C60.871 57.7385 60.8097 57.7252 60.7536 57.699C60.6975 57.6728 60.648 57.6345 60.6086 57.5867L55.463 51.4608C54.616 50.4529 54.0743 49.2241 53.9018 47.9189C53.7292 46.6136 53.933 45.2863 54.4891 44.0929C55.0452 42.8995 55.9304 41.8897 57.0408 41.1823ZM60.9328 51.5496C60.0353 51.5496 59.158 51.2834 58.4117 50.7848C57.6655 50.2862 57.0839 49.5775 56.7404 48.7484C56.397 47.9192 56.3071 47.0068 56.4822 46.1266C56.6573 45.2464 57.0895 44.4378 57.7241 43.8032C58.3587 43.1686 59.1672 42.7364 60.0475 42.5613C60.9277 42.3862 61.8401 42.4761 62.6693 42.8195C63.4984 43.163 64.2071 43.7446 64.7057 44.4908C65.2043 45.2371 65.4705 46.1144 65.4705 47.0118C65.4705 48.2153 64.9924 49.3695 64.1414 50.2205C63.2904 51.0715 62.1362 51.5496 60.9328 51.5496ZM60.9328 43.8572C60.3084 43.857 59.698 44.042 59.1788 44.3887C58.6596 44.7354 58.2549 45.2284 58.0158 45.8051C57.7768 46.3819 57.7141 47.0166 57.8358 47.629C57.9575 48.2414 58.258 48.8039 58.6994 49.2454C59.1409 49.687 59.7033 49.9877 60.3156 50.1096C60.928 50.2315 61.5627 50.169 62.1395 49.9301C62.7164 49.6912 63.2094 49.2866 63.5563 48.7675C63.9032 48.2484 64.0884 47.6381 64.0884 47.0137C64.0876 46.177 63.7549 45.3747 63.1633 44.7829C62.5717 44.1911 61.7695 43.8582 60.9328 43.8572Z" fill="#005770"/>
<path d="M27.9918 45.1347L27.9073 45.3159H27.9073L27.9918 45.1347ZM28.8465 45.3352L28.8638 45.1355L28.8514 45.1352L28.8465 45.3352ZM27.2534 44.5672L27.4067 44.4389L27.4065 44.4385L27.2534 44.5672ZM20.4997 36.5317L20.3466 36.6603L20.3466 36.6604L20.4997 36.5317ZM18.9985 25.1627L18.8172 25.0782L18.9985 25.1627ZM22.9357 20.6716L23.0431 20.8402L22.9357 20.6716ZM28.6695 19L28.6695 19.2H28.6695V19ZM29.1327 19L29.1328 18.8H29.1327V19ZM34.8655 20.6719L34.973 20.5032L34.8655 20.6719ZM38.802 25.1623L38.6207 25.2468L38.802 25.1623ZM39.709 31.0646L39.5108 31.0384L39.709 31.0646ZM37.3025 36.5298L37.4556 36.6585L37.4557 36.6584L37.3025 36.5298ZM31.0598 43.9575L30.9066 43.8288L30.6304 44.1575H31.0598V43.9575ZM41.1011 43.9575V44.1575L41.1041 44.1575L41.1011 43.9575ZM44.9206 46.4574L44.7362 46.5346L44.9206 46.4574ZM44.9206 49.6038L44.7362 49.5265L44.9206 49.6038ZM42.6789 51.8116L42.6045 51.626H42.6045L42.6789 51.8116ZM41.1011 52.1037L41.1041 51.9037H41.1011V52.1037ZM40.0763 52.1037V51.9037H40.0761L40.0763 52.1037ZM37.383 54.796L37.183 54.7958V54.796H37.383ZM37.383 55.0475H37.183L37.183 55.0477L37.383 55.0475ZM38.1726 56.9511L38.0312 57.0926H38.0312L38.1726 56.9511ZM40.0763 57.7408L40.0761 57.9408H40.0763V57.7408ZM58.9348 57.7408V57.9408H59.364L59.088 57.6122L58.9348 57.7408ZM54.4061 52.3485L54.5593 52.2199L54.5592 52.2198L54.4061 52.3485ZM52.5334 48.0995L52.7317 48.0733L52.5334 48.0995ZM53.238 43.5099L53.0567 43.4254L53.238 43.5099ZM56.2991 40.0183L56.1916 39.8496L56.2991 40.0183ZM60.757 38.7192L60.757 38.9192H60.757V38.7192ZM61.1096 38.7192V38.9192H61.1097L61.1096 38.7192ZM69.3332 48.0995L69.135 48.0733L69.3332 48.0995ZM67.4605 52.3485L67.3074 52.2198L67.3074 52.2199L67.4605 52.3485ZM62.315 58.4753L62.468 58.6041L62.4681 58.604L62.315 58.4753ZM61.6952 58.9499L61.7795 59.1313L61.6952 58.9499ZM61.0131 59.1165L61.0044 58.9167L60.9972 58.917L60.9901 58.9178L61.0131 59.1165ZM60.9337 59.1211V58.9211H60.7885L60.7435 59.0592L60.9337 59.1211ZM60.9328 59.1239V59.3239H61.0781L61.123 59.1858L60.9328 59.1239ZM40.0763 59.1239L40.0761 59.3239H40.0763V59.1239ZM36.0027 55.0503H35.8027L35.8027 55.0506L36.0027 55.0503ZM36.0027 54.7989L35.8027 54.7986V54.7989H36.0027ZM37.1976 51.9204L37.0562 51.779L37.1976 51.9204ZM40.0763 50.7263V50.5263H40.0761L40.0763 50.7263ZM43.0062 49.9371L42.8648 49.7957L42.8648 49.7957L43.0062 49.9371ZM43.0062 46.1269L42.8648 46.2683L43.0062 46.1269ZM23.6774 21.8337L23.7849 22.0023L23.6774 21.8337ZM28.6695 20.3783L28.6695 20.5783H28.6695V20.3783ZM20.2496 25.7438L20.4309 25.8283L20.2496 25.7438ZM19.4602 30.8835L19.6585 30.8573L19.4602 30.8835ZM21.5566 35.6421L21.4035 35.7707L21.4035 35.7708L21.5566 35.6421ZM28.3103 43.6777L28.1571 43.8064L28.1604 43.8101L28.3103 43.6777ZM28.5771 43.8744L28.4949 44.0567H28.4949L28.5771 43.8744ZM29.2252 43.8744L29.143 43.692H29.143L29.2252 43.8744ZM29.492 43.6777L29.6419 43.8101L29.6451 43.8063L29.492 43.6777ZM36.2456 35.6421L36.3987 35.7708L36.3988 35.7707L36.2456 35.6421ZM38.3421 30.8835L38.1438 30.8573V30.8573L38.3421 30.8835ZM37.5527 25.7438L37.734 25.6594L37.5527 25.7438ZM34.1249 21.8337L34.0174 22.0023L34.1249 21.8337ZM29.1327 20.3783V20.5783H29.1327L29.1327 20.3783ZM25.282 35.0822L25.1709 35.2485L25.282 35.0822ZM28.9012 36.1801V36.3801H28.9015L28.9012 36.1801ZM22.8827 32.1588L22.6979 32.2353L22.8827 32.1588ZM22.5118 28.395L22.708 28.434L22.5118 28.395ZM24.2944 25.0595L24.153 24.9181L24.2944 25.0595ZM27.6297 23.2764L27.6687 23.4726L27.6297 23.2764ZM34.3173 26.0457L34.4836 25.9345V25.9345L34.3173 26.0457ZM35.4157 29.6646L35.6157 29.6649V29.6646L35.4157 29.6646ZM26.0487 25.3967L25.9375 25.2304H25.9375L26.0487 25.3967ZM28.9012 24.5313L28.9014 24.3313H28.9012V24.5313ZM24.1577 27.701L24.3424 27.7776L24.1577 27.701ZM23.8657 30.6676L23.6695 30.7066L23.8657 30.6676ZM27.9001 34.7013L27.8611 34.8975L27.9001 34.7013ZM30.8666 34.4087L30.9432 34.5935V34.5935L30.8666 34.4087ZM33.1706 32.5173L33.0043 32.4062V32.4062L33.1706 32.5173ZM34.0354 29.6646L34.2354 29.6646V29.6644L34.0354 29.6646ZM32.5297 26.0364L32.3882 26.1779L32.5297 26.0364ZM60.757 40.0995L60.757 40.2995H60.757V40.0995ZM57.0408 41.1823L56.9333 41.0136H56.9333L57.0408 41.1823ZM61.1096 40.0995V40.2995H61.1097L61.1096 40.0995ZM64.8258 41.1823L64.9333 41.0136L64.8258 41.1823ZM67.3776 44.0929L67.1963 44.1774L67.3776 44.0929ZM67.9649 47.9189L67.7666 47.8926L67.9649 47.9189ZM66.4036 51.4608L66.2505 51.3321L66.2505 51.3322L66.4036 51.4608ZM61.2581 57.5867L61.1049 57.4581L61.1039 57.4593L61.2581 57.5867ZM60.9329 57.738L60.9347 57.538L60.9312 57.538L60.9329 57.738ZM60.7536 57.699L60.6691 57.8803H60.6691L60.7536 57.699ZM60.6086 57.5867L60.7629 57.4594L60.7617 57.4581L60.6086 57.5867ZM55.463 51.4608L55.6161 51.3322L55.6161 51.3321L55.463 51.4608ZM53.9018 47.9189L53.7035 47.9451L53.9018 47.9189ZM58.4117 50.7848L58.3006 50.9511L58.4117 50.7848ZM56.4822 46.1266L56.2861 46.0876V46.0876L56.4822 46.1266ZM57.7241 43.8032L57.8655 43.9446V43.9446L57.7241 43.8032ZM62.6693 42.8195L62.7458 42.6348L62.6693 42.8195ZM64.7057 44.4908L64.5394 44.6019L64.7057 44.4908ZM64.1414 50.2205L64.2828 50.3619V50.3619L64.1414 50.2205ZM59.1788 44.3887L59.2899 44.555L59.1788 44.3887ZM60.9328 43.8572L60.933 43.6572H60.9328L60.9328 43.8572ZM58.0158 45.8051L57.8311 45.7285L58.0158 45.8051ZM57.8358 47.629L57.6396 47.668L57.8358 47.629ZM58.6994 49.2454L58.558 49.3868L58.6994 49.2454ZM60.3156 50.1096L60.3547 49.9134V49.9134L60.3156 50.1096ZM63.5563 48.7675L63.7226 48.8786L63.5563 48.7675ZM64.0884 47.0137H64.2884V47.0136L64.0884 47.0137ZM63.1633 44.7829L63.0219 44.9243V44.9243L63.1633 44.7829ZM27.9073 45.3159C28.2005 45.4527 28.5186 45.5272 28.8417 45.5351L28.8514 45.1352C28.5835 45.1287 28.3196 45.0668 28.0764 44.9534L27.9073 45.3159ZM27.1 44.6956C27.3205 44.959 27.596 45.1707 27.9073 45.3159L28.0764 44.9534C27.8182 44.833 27.5896 44.6573 27.4067 44.4389L27.1 44.6956ZM20.3466 36.6604L27.1003 44.6959L27.4065 44.4385L20.6528 36.403L20.3466 36.6604ZM17.8935 31.0922C18.1645 33.1439 19.0155 35.0757 20.3466 36.6603L20.6529 36.403C19.3708 34.8767 18.5511 33.0161 18.2901 31.0398L17.8935 31.0922ZM18.8172 25.0782C17.9431 26.9541 17.6226 29.0405 17.8935 31.0922L18.2901 31.0398C18.0292 29.0636 18.3378 27.054 19.1798 25.2472L18.8172 25.0782ZM22.8282 20.5029C21.0829 21.6151 19.6914 23.2024 18.8172 25.0782L19.1798 25.2472C20.0218 23.4404 21.3621 21.9115 23.0431 20.8402L22.8282 20.5029ZM28.6695 18.8C26.6 18.8 24.5735 19.3907 22.8282 20.5029L23.0431 20.8402C24.7242 19.769 26.6762 19.2 28.6695 19.2L28.6695 18.8ZM29.1327 18.8H28.6695V19.2H29.1327V18.8ZM34.973 20.5032C33.2281 19.3911 31.2019 18.8003 29.1328 18.8L29.1327 19.2C31.1257 19.2003 33.0773 19.7694 34.758 20.8405L34.973 20.5032ZM38.9832 25.0778C38.1092 23.2023 36.7179 21.6153 34.973 20.5032L34.758 20.8405C36.4387 21.9117 37.7788 23.4403 38.6207 25.2468L38.9832 25.0778ZM39.9073 31.0907C40.1779 29.0393 39.8573 26.9533 38.9832 25.0778L38.6207 25.2468C39.4626 27.0533 39.7714 29.0625 39.5108 31.0384L39.9073 31.0907ZM37.4557 36.6584C38.7862 35.0737 39.6367 33.1422 39.9073 31.0907L39.5108 31.0384C39.2501 33.0143 38.4309 34.8748 37.1494 36.4012L37.4557 36.6584ZM31.2129 44.0862L37.4556 36.6585L37.1494 36.4011L30.9066 43.8288L31.2129 44.0862ZM31.0598 44.1575H41.1011V43.7575H31.0598V44.1575ZM41.1041 44.1575C41.6177 44.1497 42.1277 44.244 42.6045 44.4352L42.7533 44.0639C42.2273 43.853 41.6646 43.7489 41.098 43.7575L41.1041 44.1575ZM42.6045 44.4352C43.0812 44.6263 43.5152 44.9104 43.8812 45.2708L44.1619 44.9858C43.7581 44.5881 43.2793 44.2748 42.7533 44.0639L42.6045 44.4352ZM43.8812 45.2708C44.2471 45.6312 44.5378 46.0608 44.7362 46.5346L45.1051 46.3801C44.8863 45.8574 44.5656 45.3834 44.1619 44.9858L43.8812 45.2708ZM44.7362 46.5346C44.9345 47.0084 45.0367 47.5169 45.0367 48.0306H45.4367C45.4367 47.4639 45.324 46.9029 45.1051 46.3801L44.7362 46.5346ZM45.0367 48.0306C45.0367 48.5442 44.9345 49.0528 44.7362 49.5265L45.1051 49.681C45.324 49.1583 45.4367 48.5973 45.4367 48.0306H45.0367ZM44.7362 49.5265C44.5378 50.0003 44.2471 50.43 43.8812 50.7904L44.1619 51.0754C44.5656 50.6777 44.8863 50.2038 45.1051 49.681L44.7362 49.5265ZM43.8812 50.7904C43.5152 51.1508 43.0812 51.4349 42.6045 51.626L42.7533 51.9973C43.2793 51.7864 43.7581 51.473 44.1619 51.0754L43.8812 50.7904ZM42.6045 51.626C42.1277 51.8171 41.6177 51.9115 41.1041 51.9037L41.098 52.3036C41.6646 52.3123 42.2273 52.2081 42.7533 51.9973L42.6045 51.626ZM41.1011 51.9037H40.0763V52.3037H41.1011V51.9037ZM40.0761 51.9037C39.3092 51.9045 38.574 52.2094 38.0316 52.7516L38.3144 53.0345C38.7818 52.5672 39.4155 52.3043 40.0765 52.3037L40.0761 51.9037ZM38.0316 52.7516C37.4892 53.2937 37.184 54.0289 37.183 54.7958L37.583 54.7963C37.5839 54.1354 37.8469 53.5018 38.3144 53.0345L38.0316 52.7516ZM37.183 54.796V55.0475H37.583V54.796H37.183ZM37.183 55.0477C37.1838 55.8148 37.4888 56.5502 38.0312 57.0926L38.3141 56.8097C37.8466 56.3422 37.5837 55.7084 37.583 55.0473L37.183 55.0477ZM38.0312 57.0926C38.5736 57.6349 39.309 57.94 40.0761 57.9408L40.0765 57.5408C39.4154 57.5401 38.7815 57.2772 38.3141 56.8097L38.0312 57.0926ZM40.0763 57.9408H58.9348V57.5408H40.0763V57.9408ZM59.088 57.6122L54.5593 52.2199L54.2529 52.4771L58.7817 57.8695L59.088 57.6122ZM54.5592 52.2198C53.5677 51.0398 52.9336 49.6013 52.7317 48.0733L52.3351 48.1257C52.547 49.7292 53.2124 51.2389 54.253 52.4772L54.5592 52.2198ZM52.7317 48.0733C52.5298 46.5453 52.7683 44.9914 53.4193 43.5943L53.0567 43.4254C52.3736 44.8915 52.1232 46.5222 52.3351 48.1257L52.7317 48.0733ZM53.4193 43.5943C54.0703 42.1973 55.1067 41.0152 56.4065 40.187L56.1916 39.8496C54.8275 40.7188 53.7399 41.9593 53.0567 43.4254L53.4193 43.5943ZM56.4065 40.187C57.7064 39.3588 59.2157 38.919 60.757 38.9192L60.757 38.5192C59.1396 38.519 57.5557 38.9805 56.1916 39.8496L56.4065 40.187ZM60.757 38.9192H61.1096V38.5192H60.757V38.9192ZM61.1097 38.9192C62.6509 38.919 64.1603 39.3588 65.4601 40.187L65.6751 39.8496C64.311 38.9805 62.7271 38.519 61.1096 38.5192L61.1097 38.9192ZM65.4601 40.187C66.76 41.0152 67.7964 42.1973 68.4473 43.5943L68.8099 43.4254C68.1268 41.9593 67.0392 40.7188 65.6751 39.8496L65.4601 40.187ZM68.4473 43.5943C69.0983 44.9914 69.3369 46.5453 69.135 48.0733L69.5315 48.1257C69.7434 46.5222 69.4931 44.8915 68.8099 43.4254L68.4473 43.5943ZM69.135 48.0733C68.933 49.6013 68.299 51.0398 67.3074 52.2198L67.6137 52.4772C68.6542 51.2389 69.3196 49.7292 69.5315 48.1257L69.135 48.0733ZM67.3074 52.2199L62.1618 58.3467L62.4681 58.604L67.6137 52.4771L67.3074 52.2199ZM62.1619 58.3466C62.0112 58.5258 61.8231 58.6699 61.6108 58.7686L61.7795 59.1313C62.0447 59.0079 62.2798 58.828 62.468 58.6041L62.1619 58.3466ZM61.6108 58.7686C61.4201 58.8573 61.214 58.9075 61.0044 58.9167L61.0218 59.3163C61.2838 59.3049 61.5412 59.2421 61.7795 59.1313L61.6108 58.7686ZM60.9901 58.9178C60.9715 58.92 60.9527 58.9211 60.9337 58.9211V59.3211C60.9681 59.3211 61.0023 59.3191 61.0361 59.3152L60.9901 58.9178ZM60.7435 59.0592L60.7426 59.062L61.123 59.1858L61.1239 59.1829L60.7435 59.0592ZM60.9328 58.9239H40.0763V59.3239H60.9328V58.9239ZM40.0765 58.9239C39.0495 58.9227 38.0649 58.5142 37.3387 57.788L37.0558 58.0708C37.8569 58.8719 38.9431 59.3226 40.0761 59.3239L40.0765 58.9239ZM37.3387 57.788C36.6124 57.0617 36.2039 56.0771 36.2027 55.0501L35.8027 55.0506C35.804 56.1835 36.2547 57.2697 37.0558 58.0708L37.3387 57.788ZM36.2027 55.0503V54.7989H35.8027V55.0503H36.2027ZM36.2027 54.7992C36.2042 53.7723 36.6128 52.7879 37.339 52.0619L37.0562 51.779C36.2551 52.5799 35.8043 53.6658 35.8027 54.7986L36.2027 54.7992ZM37.339 52.0619C38.0652 51.3358 39.0497 50.9274 40.0765 50.9263L40.0761 50.5263C38.9433 50.5276 37.8572 50.9781 37.0562 51.779L37.339 52.0619ZM40.0763 50.9263H41.1011V50.5263H40.0763V50.9263ZM41.1011 50.9263C41.8687 50.9263 42.6048 50.6213 43.1476 50.0786L42.8648 49.7957C42.397 50.2635 41.7626 50.5263 41.1011 50.5263V50.9263ZM43.1476 50.0786C43.6904 49.5358 43.9953 48.7996 43.9953 48.032H43.5953C43.5953 48.6935 43.3325 49.3279 42.8648 49.7957L43.1476 50.0786ZM43.9953 48.032C43.9953 47.2644 43.6904 46.5282 43.1476 45.9854L42.8648 46.2683C43.3325 46.7361 43.5953 47.3705 43.5953 48.032H43.9953ZM43.1476 45.9854C42.6048 45.4427 41.8687 45.1377 41.1011 45.1377V45.5377C41.7626 45.5377 42.397 45.8005 42.8648 46.2683L43.1476 45.9854ZM41.1011 45.1377H28.9059V45.5377H41.1011V45.1377ZM28.9059 45.1377C28.8918 45.1377 28.8777 45.1371 28.8637 45.1359L28.8294 45.5344C28.8547 45.5366 28.8803 45.5377 28.9059 45.5377V45.1377ZM23.7849 22.0023C25.2443 21.0723 26.9389 20.5783 28.6695 20.5783L28.6695 20.1783C26.8628 20.1783 25.0936 20.6941 23.5699 21.665L23.7849 22.0023ZM20.4309 25.8283C21.1618 24.2597 22.3254 22.9324 23.7849 22.0023L23.5699 21.665C22.0463 22.636 20.8314 24.0217 20.0683 25.6594L20.4309 25.8283ZM19.6585 30.8573C19.4319 29.1416 19.6999 27.3969 20.4309 25.8283L20.0683 25.6594C19.3052 27.297 19.0254 29.1185 19.2619 30.9097L19.6585 30.8573ZM21.7098 35.5135C20.5967 34.1884 19.885 32.573 19.6585 30.8573L19.2619 30.9097C19.4984 32.7009 20.2414 34.3873 21.4035 35.7707L21.7098 35.5135ZM28.4634 43.549L21.7098 35.5134L21.4035 35.7708L28.1572 43.8063L28.4634 43.549ZM28.6593 43.692C28.5832 43.6578 28.5154 43.6077 28.4602 43.5452L28.1604 43.8101C28.2532 43.9151 28.3672 43.9991 28.4949 44.0567L28.6593 43.692ZM28.9011 43.744C28.8177 43.744 28.7353 43.7263 28.6593 43.692L28.4949 44.0567C28.6226 44.1143 28.7611 44.144 28.9011 44.144V43.744ZM29.143 43.692C29.067 43.7263 28.9845 43.744 28.9011 43.744V44.144C29.0412 44.144 29.1797 44.1143 29.3074 44.0567L29.143 43.692ZM29.3421 43.5452C29.2869 43.6077 29.219 43.6578 29.143 43.692L29.3074 44.0567C29.4351 43.9991 29.5491 43.9151 29.6419 43.8101L29.3421 43.5452ZM36.0925 35.5134L29.3389 43.549L29.6451 43.8063L36.3987 35.7708L36.0925 35.5134ZM38.1438 30.8573C37.9172 32.573 37.2056 34.1884 36.0925 35.5135L36.3988 35.7707C37.5608 34.3873 38.3038 32.7009 38.5404 30.9097L38.1438 30.8573ZM37.3714 25.8283C38.1024 27.3969 38.3704 29.1416 38.1438 30.8573L38.5404 30.9097C38.7769 29.1185 38.4971 27.297 37.734 25.6594L37.3714 25.8283ZM34.0174 22.0023C35.4768 22.9324 36.6404 24.2597 37.3714 25.8283L37.734 25.6594C36.9708 24.0217 35.756 22.636 34.2323 21.665L34.0174 22.0023ZM29.1327 20.5783C30.8633 20.5783 32.5579 21.0723 34.0174 22.0023L34.2323 21.665C32.7087 20.6941 30.9395 20.1783 29.1327 20.1783L29.1327 20.5783ZM28.6695 20.5783H29.1327V20.1783H28.6695V20.5783ZM25.1709 35.2485C26.2751 35.9863 27.5732 36.3801 28.9012 36.3801V35.9801C27.6523 35.9801 26.4315 35.6097 25.3931 34.9159L25.1709 35.2485ZM22.6979 32.2353C23.2062 33.4622 24.0668 34.5108 25.1709 35.2485L25.3931 34.9159C24.3548 34.2221 23.5454 33.236 23.0675 32.0822L22.6979 32.2353ZM22.3157 28.356C22.0567 29.6585 22.1897 31.0085 22.6979 32.2353L23.0675 32.0822C22.5895 30.9285 22.4644 29.6589 22.708 28.434L22.3157 28.356ZM24.153 24.9181C23.2141 25.8572 22.5747 27.0536 22.3157 28.356L22.708 28.434C22.9516 27.2092 23.5529 26.084 24.4359 25.2009L24.153 24.9181ZM27.5907 23.0803C26.2882 23.3395 25.0919 23.979 24.153 24.9181L24.4359 25.2009C25.3189 24.3178 26.4439 23.7163 27.6687 23.4726L27.5907 23.0803ZM31.47 23.462C30.2431 22.9539 28.8931 22.8211 27.5907 23.0803L27.6687 23.4726C28.8936 23.2288 30.1632 23.3537 31.317 23.8315L31.47 23.462ZM34.4836 25.9345C33.7457 24.8305 32.697 23.97 31.47 23.462L31.317 23.8315C32.4708 24.3093 33.4571 25.1185 34.151 26.1568L34.4836 25.9345ZM35.6157 29.6646C35.6155 28.3366 35.2215 27.0386 34.4836 25.9345L34.151 26.1568C34.845 27.1951 35.2155 28.4158 35.2157 29.6647L35.6157 29.6646ZM33.6469 34.4106C34.9056 33.1517 35.6136 31.445 35.6157 29.6649L35.2157 29.6644C35.2137 31.3387 34.5478 32.9438 33.364 34.1278L33.6469 34.4106ZM28.9015 36.3801C30.6816 36.3777 32.3882 35.6695 33.6469 34.4106L33.364 34.1278C32.1802 35.3117 30.5752 35.9779 28.9009 35.9801L28.9015 36.3801ZM26.1598 25.563C26.9712 25.0208 27.9253 24.7313 28.9012 24.7313V24.3313C27.8461 24.3313 26.8148 24.6442 25.9375 25.2304L26.1598 25.563ZM24.3424 27.7776C24.7159 26.8759 25.3483 26.1052 26.1598 25.563L25.9375 25.2304C25.0603 25.8166 24.3766 26.6497 23.9729 27.6245L24.3424 27.7776ZM24.0618 30.6285C23.8713 29.6714 23.969 28.6792 24.3424 27.7776L23.9729 27.6245C23.5692 28.5993 23.4636 29.6718 23.6695 30.7066L24.0618 30.6285ZM25.4125 33.1549C24.7223 32.4649 24.2523 31.5857 24.0618 30.6285L23.6695 30.7066C23.8754 31.7414 24.3836 32.6918 25.1297 33.4378L25.4125 33.1549ZM27.9391 34.5051C26.9819 34.3148 26.1026 33.845 25.4125 33.1549L25.1297 33.4378C25.8758 34.1838 26.8263 34.6917 27.8611 34.8975L27.9391 34.5051ZM30.7901 34.224C29.8885 34.5976 28.8963 34.6954 27.9391 34.5051L27.8611 34.8975C28.8959 35.1032 29.9685 34.9974 30.9432 34.5935L30.7901 34.224ZM33.0043 32.4062C32.4622 33.2178 31.6917 33.8504 30.7901 34.224L30.9432 34.5935C31.9179 34.1896 32.7509 33.5057 33.3369 32.6284L33.0043 32.4062ZM33.8354 29.6647C33.8356 30.6406 33.5464 31.5947 33.0043 32.4062L33.3369 32.6284C33.9229 31.7511 34.2356 30.7197 34.2354 29.6646L33.8354 29.6647ZM32.3882 26.1779C33.3133 27.1028 33.8338 28.3568 33.8354 29.6649L34.2354 29.6644C34.2336 28.2503 33.671 26.8948 32.6711 25.895L32.3882 26.1779ZM28.901 24.7313C30.2091 24.7328 31.4632 25.253 32.3882 26.1779L32.6711 25.895C31.6711 24.8952 30.3154 24.3329 28.9014 24.3313L28.901 24.7313ZM60.7571 39.8995C59.4024 39.8992 58.0758 40.2857 56.9333 41.0136L57.1483 41.351C58.2265 40.664 59.4785 40.2992 60.757 40.2995L60.7571 39.8995ZM61.1096 39.8995H60.757V40.2995H61.1096V39.8995ZM64.9333 41.0136C63.7908 40.2857 62.4643 39.8992 61.1096 39.8995L61.1097 40.2995C62.3882 40.2992 63.6401 40.664 64.7184 41.351L64.9333 41.0136ZM67.5589 44.0084C66.9867 42.7805 66.0758 41.7415 64.9333 41.0136L64.7184 41.351C65.7966 42.0379 66.6563 43.0185 67.1963 44.1774L67.5589 44.0084ZM68.1631 47.9451C68.3407 46.6021 68.131 45.2363 67.5589 44.0084L67.1963 44.1774C67.7363 45.3362 67.9341 46.6252 67.7666 47.8926L68.1631 47.9451ZM66.5568 51.5895C67.4283 50.5524 67.9856 49.288 68.1631 47.9451L67.7666 47.8926C67.5991 49.1601 67.0731 50.3534 66.2505 51.3321L66.5568 51.5895ZM61.4112 57.7154L66.5568 51.5894L66.2505 51.3322L61.1049 57.4581L61.4112 57.7154ZM61.1969 57.8804C61.2801 57.8417 61.3537 57.785 61.4122 57.7141L61.1039 57.4593C61.0834 57.4841 61.0575 57.5041 61.0282 57.5178L61.1969 57.8804ZM60.931 57.938C61.0229 57.9388 61.1137 57.9191 61.1969 57.8804L61.0282 57.5178C60.9989 57.5314 60.967 57.5383 60.9347 57.538L60.931 57.938ZM60.6691 57.8803C60.7521 57.919 60.8428 57.9387 60.9345 57.938L60.9312 57.538C60.8991 57.5383 60.8673 57.5313 60.8382 57.5178L60.6691 57.8803ZM60.4543 57.714C60.5126 57.7847 60.586 57.8415 60.6691 57.8803L60.8382 57.5178C60.8091 57.5042 60.7833 57.4843 60.7629 57.4595L60.4543 57.714ZM55.3099 51.5894L60.4554 57.7154L60.7617 57.4581L55.6161 51.3322L55.3099 51.5894ZM53.7035 47.9451C53.881 49.288 54.4383 50.5524 55.3099 51.5895L55.6161 51.3321C54.7936 50.3534 54.2676 49.1601 54.1001 47.8926L53.7035 47.9451ZM54.3078 44.0084C53.7356 45.2363 53.526 46.6021 53.7035 47.9451L54.1001 47.8926C53.9325 46.6252 54.1304 45.3362 54.6704 44.1774L54.3078 44.0084ZM56.9333 41.0136C55.7909 41.7415 54.88 42.7805 54.3078 44.0084L54.6704 44.1774C55.2104 43.0185 56.07 42.0379 57.1483 41.351L56.9333 41.0136ZM58.3006 50.9511C59.0797 51.4717 59.9957 51.7496 60.9328 51.7496V51.3496C60.0748 51.3496 59.2362 51.0952 58.5228 50.6185L58.3006 50.9511ZM56.5557 48.8249C56.9142 49.6906 57.5215 50.4305 58.3006 50.9511L58.5228 50.6185C57.8095 50.1419 57.2535 49.4644 56.9252 48.6718L56.5557 48.8249ZM56.2861 46.0876C56.1033 47.0066 56.1971 47.9592 56.5557 48.8249L56.9252 48.6718C56.5969 47.8792 56.511 47.007 56.6784 46.1656L56.2861 46.0876ZM57.5827 43.6618C56.9201 44.3244 56.4689 45.1685 56.2861 46.0876L56.6784 46.1656C56.8457 45.3242 57.2589 44.5513 57.8655 43.9446L57.5827 43.6618ZM60.0085 42.3652C59.0894 42.548 58.2453 42.9992 57.5827 43.6618L57.8655 43.9446C58.4722 43.338 59.2451 42.9248 60.0865 42.7575L60.0085 42.3652ZM62.7458 42.6348C61.8801 42.2762 60.9275 42.1824 60.0085 42.3652L60.0865 42.7575C60.9279 42.5901 61.8001 42.676 62.5927 43.0043L62.7458 42.6348ZM64.872 44.3797C64.3514 43.6006 63.6115 42.9933 62.7458 42.6348L62.5927 43.0043C63.3853 43.3326 64.0628 43.8886 64.5394 44.6019L64.872 44.3797ZM65.6705 47.0118C65.6705 46.0748 65.3926 45.1588 64.872 44.3797L64.5394 44.6019C65.0161 45.3153 65.2705 46.1539 65.2705 47.0118H65.6705ZM64.2828 50.3619C65.1713 49.4734 65.6705 48.2684 65.6705 47.0118H65.2705C65.2705 48.1623 64.8135 49.2656 64 50.0791L64.2828 50.3619ZM60.9328 51.7496C62.1893 51.7496 63.3943 51.2504 64.2828 50.3619L64 50.0791C63.1865 50.8926 62.0832 51.3496 60.9328 51.3496V51.7496ZM59.2899 44.555C59.7762 44.2303 60.3479 44.057 60.9327 44.0572L60.9328 43.6572C60.2689 43.657 59.6199 43.8537 59.0677 44.2224L59.2899 44.555ZM58.2006 45.8817C58.4245 45.3415 58.8036 44.8798 59.2899 44.555L59.0677 44.2224C58.5156 44.5911 58.0853 45.1152 57.8311 45.7285L58.2006 45.8817ZM58.032 47.59C57.918 47.0164 57.9767 46.4219 58.2006 45.8817L57.8311 45.7285C57.5769 46.3419 57.5102 47.0168 57.6396 47.668L58.032 47.59ZM58.8409 49.104C58.4274 48.6905 58.1459 48.1636 58.032 47.59L57.6396 47.668C57.769 48.3191 58.0886 48.9173 58.558 49.3868L58.8409 49.104ZM60.3547 49.9134C59.7811 49.7993 59.2543 49.5176 58.8409 49.104L58.558 49.3868C59.0274 49.8564 59.6255 50.1761 60.2766 50.3057L60.3547 49.9134ZM62.063 49.7453C61.5227 49.9691 60.9282 50.0276 60.3547 49.9134L60.2766 50.3057C60.9277 50.4353 61.6027 50.3689 62.2161 50.1149L62.063 49.7453ZM63.39 48.6564C63.0651 49.1426 62.6033 49.5216 62.063 49.7453L62.2161 50.1149C62.8295 49.8609 63.3537 49.4306 63.7226 48.8786L63.39 48.6564ZM63.8884 47.0137C63.8884 47.5985 63.7149 48.1702 63.39 48.6564L63.7226 48.8786C64.0915 48.3266 64.2884 47.6776 64.2884 47.0137H63.8884ZM63.0219 44.9243C63.576 45.4786 63.8877 46.2301 63.8884 47.0139L64.2884 47.0136C64.2876 46.1238 63.9338 45.2707 63.3048 44.6415L63.0219 44.9243ZM60.9325 44.0572C61.7163 44.0581 62.4677 44.37 63.0219 44.9243L63.3048 44.6415C62.6757 44.0122 61.8228 43.6583 60.933 43.6572L60.9325 44.0572Z" fill="#005770" mask="url(#path-2-outside-1_3898_29163)"/>
</svg>
