<svg width="80" height="80" viewBox="0 0 80 80" fill="none" xmlns="http://www.w3.org/2000/svg">
<circle cx="40" cy="40" r="39" fill="#005770" stroke="white" stroke-width="2"/>
<path d="M57.9512 55.3183H61.9078C62.0446 55.3183 62.1847 55.3124 62.322 55.3215C62.7267 55.3475 63.0005 55.6377 63 56.0319C63 56.4064 62.7368 56.6975 62.3526 56.7377C62.2273 56.7459 62.1017 56.7477 61.9762 56.7431H29.4462C24.9479 56.7431 20.45 56.7403 15.9523 56.7345C15.6949 56.7323 15.4431 56.6582 15.2256 56.5205C14.9737 56.3526 14.955 56.0419 15.0608 55.7659C15.1813 55.452 15.4368 55.3165 15.7749 55.3174C17.0815 55.3206 18.3882 55.3174 19.6949 55.3174H20.1968C20.2054 55.1404 20.22 54.9839 20.22 54.8274C20.22 47.9926 20.22 41.1575 20.22 34.3221C20.22 33.4735 20.2515 33.4219 21.0582 33.1171C23.255 32.2877 25.4508 31.4559 27.6522 30.6388C27.926 30.5371 28.0332 30.4162 28.0323 30.1059C28.0199 26.3999 28.025 22.6929 28.0272 18.9864C28.0272 18.2185 28.2481 18 29.0145 18H47.2583C48.0795 18 48.2734 18.1966 48.2739 19.027C48.276 21.8037 48.276 24.5805 48.2739 27.3575V27.8667C48.4564 27.806 48.5933 27.7649 48.7301 27.7143C51.4092 26.7051 54.0881 25.6956 56.7668 24.6858C57.5511 24.391 57.9531 24.6693 57.9531 25.507C57.9531 35.2316 57.9531 44.9566 57.9531 54.6819L57.9512 55.3183ZM29.4621 19.4467C29.4621 19.6388 29.4621 19.7871 29.4621 19.9354C29.4913 23.7897 29.5397 27.6459 29.5461 31.4979C29.5591 39.275 29.5608 47.0521 29.5511 54.8292C29.5511 54.9853 29.5693 55.1413 29.5789 55.2946H46.8112V19.4467H29.4621ZM48.2748 55.2937H56.4871V26.341C56.3503 26.3866 56.259 26.4104 56.1651 26.445C53.6521 27.3927 51.1409 28.3457 48.6234 29.282C48.356 29.3814 48.268 29.5019 48.268 29.7897C48.2768 38.1286 48.2789 46.4675 48.2743 54.8064L48.2748 55.2937ZM21.6545 55.2937H27.9962V32.0527C27.8169 32.1143 27.6769 32.159 27.5359 32.211C25.7155 32.8954 23.8992 33.5944 22.0719 34.2614C21.7411 34.3823 21.6476 34.5351 21.6481 34.8796C21.659 41.5361 21.6618 48.193 21.6563 54.8502L21.6545 55.2937Z" fill="white"/>
<path d="M34.2188 29.0437C33.5281 29.0437 32.8378 29.0437 32.1475 29.0437C31.6456 29.0437 31.3203 28.7503 31.3263 28.3137C31.3313 27.898 31.6456 27.6111 32.1379 27.6088C33.5313 27.6021 34.9248 27.6021 36.3185 27.6088C36.8308 27.6088 37.1397 27.9017 37.1365 28.3424C37.1315 28.764 36.8285 29.0386 36.329 29.045C35.6263 29.0542 34.9228 29.045 34.2202 29.045L34.2188 29.0437Z" fill="white"/>
<path d="M42.0332 47.5181C41.3425 47.5181 40.6522 47.5217 39.9619 47.5181C39.4418 47.5149 39.1183 47.2443 39.1114 46.8154C39.1046 46.3866 39.4171 46.0914 39.9368 46.0882C41.3423 46.08 42.7481 46.08 44.1543 46.0882C44.6169 46.0909 44.9258 46.3861 44.9299 46.789C44.9363 47.2078 44.6224 47.5071 44.1401 47.5135C43.4371 47.5226 42.734 47.5135 42.0314 47.5135L42.0332 47.5181Z" fill="white"/>
<path d="M41.9824 29.0471C41.2921 29.0471 40.6018 29.053 39.9115 29.0471C39.3608 29.0407 39.0497 28.7656 39.0588 28.3148C39.0675 27.8814 39.3782 27.6126 39.9056 27.6108C41.2743 27.6053 42.643 27.6053 44.0118 27.6108C44.5483 27.6131 44.8827 27.9096 44.8722 28.3463C44.8622 28.7697 44.5319 29.0461 44.0177 29.0493C43.3383 29.053 42.6604 29.0475 41.9824 29.0471Z" fill="white"/>
<path d="M34.299 47.5176C33.6092 47.5176 32.9189 47.5212 32.229 47.5176C31.7089 47.5139 31.3918 47.2438 31.3877 46.8122C31.3836 46.3743 31.6898 46.0937 32.2131 46.0909C33.6055 46.0836 34.9981 46.0836 36.3909 46.0909C36.8877 46.0909 37.1893 46.3715 37.1948 46.7972C37.2003 47.2375 36.8927 47.513 36.3694 47.5181C35.6796 47.5222 34.9893 47.5171 34.299 47.5176Z" fill="white"/>
<path d="M41.9525 24.4218C41.2623 24.4218 40.572 24.4241 39.8817 24.4218C39.3643 24.4195 39.0417 24.1481 39.0372 23.716C39.0326 23.2958 39.3666 22.9947 39.8712 22.9929C41.2645 22.9874 42.6577 22.9874 44.0508 22.9929C44.5308 22.9952 44.8597 23.2958 44.8588 23.7032C44.8588 24.1244 44.5394 24.4154 44.0613 24.4195C43.3582 24.4259 42.6556 24.4214 41.9525 24.4218Z" fill="white"/>
<path d="M34.2942 42.8937C33.5915 42.8937 32.8889 42.8969 32.1863 42.8937C31.6845 42.891 31.382 42.6286 31.3751 42.2034C31.3678 41.7604 31.6776 41.4734 32.1886 41.4707C33.5811 41.4658 34.9737 41.4658 36.3664 41.4707C36.8769 41.4707 37.1972 41.7709 37.1835 42.2048C37.1694 42.6295 36.8642 42.8891 36.3646 42.8937C35.6748 42.8964 34.9845 42.8933 34.2942 42.8937Z" fill="white"/>
<path d="M34.281 32.2322C34.9462 32.2322 35.6114 32.229 36.2766 32.2322C36.8273 32.2353 37.1507 32.5004 37.1594 32.9434C37.1676 33.3755 36.8232 33.6634 36.2866 33.6638C34.906 33.6663 33.5254 33.6663 32.1449 33.6638C31.7826 33.6638 31.5061 33.527 31.382 33.1716C31.2803 32.8823 31.3414 32.6017 31.586 32.4274C31.7601 32.311 31.9633 32.2456 32.1727 32.2385C32.8748 32.2189 33.5779 32.2322 34.281 32.2322Z" fill="white"/>
<path d="M42.0094 36.8547C42.6992 36.8547 43.3895 36.8515 44.0798 36.8547C44.5944 36.8579 44.901 37.1385 44.8923 37.5847C44.8837 38.0126 44.5812 38.2763 44.0811 38.2773C42.7012 38.2803 41.3209 38.2803 39.9403 38.2773C39.4101 38.2773 39.0967 38.0167 39.0862 37.5851C39.0753 37.138 39.3978 36.8579 39.9389 36.8551C40.6288 36.8515 41.3191 36.8547 42.0094 36.8547Z" fill="white"/>
<path d="M41.9859 42.8927C41.2956 42.8927 40.6053 42.8959 39.9154 42.8927C39.4031 42.8895 39.0864 42.603 39.0969 42.1627C39.1074 41.7489 39.4263 41.4702 39.9182 41.4688C41.3106 41.4648 42.7034 41.4648 44.0964 41.4688C44.6097 41.4688 44.9177 41.7567 44.9058 42.202C44.8958 42.6318 44.5992 42.8863 44.0951 42.8909C43.3911 42.8955 42.6885 42.8927 41.9859 42.8927Z" fill="white"/>
<path d="M34.3499 50.7089C35.0402 50.7089 35.73 50.7044 36.4203 50.7089C36.9112 50.713 37.226 50.9923 37.2292 51.4097C37.2324 51.834 36.9249 52.1361 36.4404 52.1397C35.0346 52.1485 33.629 52.1485 32.2238 52.1397C31.7261 52.137 31.4249 51.8577 31.4172 51.4325C31.4085 50.9986 31.7233 50.7153 32.2416 50.7103C32.9442 50.7044 33.6468 50.7098 34.3499 50.7089Z" fill="white"/>
<path d="M42.0803 50.7094C42.7706 50.7094 43.4609 50.7048 44.1512 50.7094C44.6485 50.7144 44.9496 50.9854 44.9546 51.4134C44.9597 51.8413 44.6512 52.1365 44.1663 52.1388C42.7607 52.1461 41.355 52.1461 39.9492 52.1388C39.4597 52.1365 39.1535 51.8523 39.1485 51.4275C39.143 50.9873 39.451 50.7126 39.972 50.7085C40.6746 50.7053 41.3777 50.7094 42.0803 50.7094Z" fill="white"/>
<path d="M41.9449 33.6653C41.2674 33.6653 40.5894 33.6685 39.9119 33.6653C39.3918 33.6621 39.0729 33.3883 39.0742 32.9577C39.0742 32.5101 39.3763 32.2382 39.8987 32.2363C41.2792 32.2318 42.6597 32.2318 44.04 32.2363C44.5656 32.2363 44.8785 32.5101 44.8817 32.9426C44.8845 33.3861 44.5551 33.6644 44.0149 33.6667C43.3255 33.6676 42.6352 33.6657 41.9449 33.6653Z" fill="white"/>
<path d="M34.2193 24.4225C33.5295 24.4225 32.8392 24.4225 32.1489 24.4225C31.626 24.4202 31.3121 24.1488 31.3135 23.714C31.3148 23.2792 31.6328 22.9945 32.1457 22.9927C33.5259 22.9878 34.9062 22.9878 36.2865 22.9927C36.798 22.9927 37.121 23.2783 37.1219 23.709C37.1228 24.1397 36.8098 24.418 36.2897 24.4212C35.5999 24.4253 34.9096 24.4212 34.2193 24.4212V24.4225Z" fill="white"/>
<path d="M34.2407 38.2783C33.5504 38.2783 32.8606 38.2815 32.1703 38.2783C31.6821 38.2756 31.3687 38.0046 31.3577 37.5816C31.3463 37.1459 31.667 36.8557 32.179 36.8548C33.5714 36.8521 34.964 36.8521 36.3568 36.8548C36.8413 36.8548 37.1629 37.1359 37.1743 37.5511C37.1867 37.9795 36.8586 38.2737 36.3504 38.2769C35.6459 38.2815 34.9433 38.2783 34.2407 38.2783Z" fill="white"/>
<path d="M52.383 47.5166C51.7935 47.5166 51.204 47.5243 50.615 47.5138C50.1382 47.5056 49.8558 47.2401 49.8394 46.8213C49.8248 46.4075 50.109 46.0968 50.5749 46.0913C51.7912 46.0776 53.008 46.0689 54.2248 46.1091C54.4529 46.1164 54.7645 46.3098 54.8722 46.5074C54.9703 46.6899 54.9215 47.0444 54.7956 47.2232C54.6783 47.3893 54.3776 47.4887 54.1509 47.5033C53.5633 47.5417 52.9724 47.5161 52.383 47.5166Z" fill="white"/>
<path d="M52.3806 32.2331C52.9578 32.2331 53.535 32.2276 54.1116 32.2331C54.6272 32.2399 54.9329 32.5228 54.9242 32.9658C54.9155 33.386 54.6048 33.6597 54.1121 33.662C52.9456 33.6669 51.7792 33.6669 50.6127 33.662C50.1072 33.6593 49.7855 33.36 49.7951 32.9275C49.8043 32.5086 50.1118 32.239 50.6123 32.2322C51.2017 32.224 51.7912 32.2322 52.3806 32.2322V32.2331Z" fill="white"/>
<path d="M52.3779 42.8928C51.7885 42.8928 51.1994 42.8964 50.61 42.8928C50.146 42.8887 49.8344 42.6135 49.8198 42.2121C49.8061 41.7923 50.1209 41.4757 50.5954 41.4725C51.7989 41.4646 53.0027 41.4646 54.2065 41.4725C54.6509 41.4757 54.9639 41.7941 54.9598 42.1956C54.9557 42.5971 54.6454 42.8859 54.1842 42.8918C53.5819 42.8991 52.9788 42.8932 52.3779 42.8928Z" fill="white"/>
<path d="M52.4235 50.7104C53.0002 50.7104 53.5769 50.7067 54.1536 50.7104C54.6764 50.7145 54.9876 50.9841 54.9862 51.4198C54.9849 51.8555 54.6815 52.1366 54.1554 52.1402C52.9896 52.1484 51.8236 52.1484 50.6574 52.1402C50.1656 52.1361 49.8613 51.845 49.8604 51.4235C49.8594 51.0019 50.1706 50.7195 50.656 50.7131C51.2446 50.7053 51.8345 50.7108 52.4235 50.7104Z" fill="white"/>
<path d="M52.3851 36.8547C52.9741 36.8547 53.5636 36.8502 54.153 36.8547C54.6385 36.8597 54.9378 37.1412 54.9355 37.5747C54.9332 37.9903 54.6389 38.2709 54.1704 38.2736C52.9793 38.2806 51.788 38.2806 50.5966 38.2736C50.1199 38.2736 49.8019 37.9711 49.8087 37.5518C49.8155 37.1326 50.1281 36.8543 50.6167 36.8506C51.2062 36.8456 51.7956 36.8506 52.3851 36.8506V36.8547Z" fill="white"/>
<path d="M24.8317 47.5176C24.4211 47.5176 24.005 47.5244 23.5921 47.5176C23.0975 47.508 22.8005 47.237 22.796 46.8077C22.7914 46.3783 23.0879 46.0987 23.5853 46.0909C24.4238 46.0787 25.2627 46.0787 26.1019 46.0909C26.5937 46.0968 26.8957 46.3797 26.9044 46.804C26.9131 47.2146 26.5946 47.508 26.1092 47.5176C25.6835 47.524 25.2578 47.5171 24.8317 47.5176Z" fill="white"/>
<path d="M24.84 42.8924C24.402 42.8924 23.9631 42.8997 23.5251 42.8924C23.0871 42.8851 22.7951 42.6104 22.7874 42.208C22.7769 41.7928 23.0693 41.4803 23.5174 41.4739C24.394 41.4605 25.2706 41.4605 26.1471 41.4739C26.5988 41.4794 26.8908 41.7846 26.8867 42.2039C26.8822 42.6113 26.5792 42.8882 26.1161 42.8946C25.6918 42.8969 25.2661 42.8924 24.84 42.8924Z" fill="white"/>
<path d="M24.8792 52.1435C24.453 52.1435 24.0264 52.1512 23.6017 52.1435C23.1263 52.1325 22.8096 51.8346 22.8105 51.418C22.8115 51.0015 23.1213 50.7186 23.6108 50.7145C24.4503 50.7078 25.2899 50.7078 26.1297 50.7145C26.596 50.7177 26.9081 50.9919 26.9236 51.3916C26.9404 51.8131 26.6334 52.1257 26.158 52.1416C25.7323 52.1562 25.3057 52.1448 24.8805 52.1448L24.8792 52.1435Z" fill="white"/>
<path d="M24.8318 38.2773C24.3933 38.2773 23.9549 38.2859 23.5169 38.2745C23.0579 38.2627 22.7709 37.9698 22.7805 37.5482C22.7896 37.1453 23.0761 36.8638 23.5137 36.8574C24.3903 36.8483 25.2669 36.8483 26.1435 36.8574C26.5755 36.8611 26.8703 37.149 26.8794 37.5468C26.889 37.9638 26.596 38.2658 26.1466 38.2768C25.7087 38.2868 25.2702 38.2782 24.8318 38.2773Z" fill="white"/>
</svg>
