<svg width="40" height="40" viewBox="0 0 40 40" fill="none" xmlns="http://www.w3.org/2000/svg">
<rect width="40" height="40" rx="20" fill="#FBAD32"/>
<path d="M22.9953 21.8485C24.8042 23.6552 26.614 25.4622 28.4212 27.2671C28.7407 27.5862 28.7409 28.1036 28.4211 28.4224C28.1018 28.7406 27.5846 28.7404 27.2661 28.4215C25.4621 26.6146 23.6551 24.8045 21.8481 22.9953C18.7233 25.4432 14.4327 24.5209 12.3587 21.76C10.3421 19.0761 10.5896 15.3405 12.9725 12.953C15.3335 10.588 19.0757 10.3481 21.7606 12.3581C24.4985 14.4077 25.4603 18.7002 22.9953 21.8485ZM22.8124 17.6969C22.8129 14.8751 20.5399 12.5951 17.7235 12.5926C14.8801 12.5896 12.5976 14.8541 12.5936 17.6814C12.5891 20.5348 14.8551 22.8073 17.708 22.8108C20.5369 22.8143 22.8119 20.5353 22.8124 17.6969Z" fill="white"/>
</svg>
