<svg width="17" height="17" viewBox="0 0 17 17" fill="none" xmlns="http://www.w3.org/2000/svg">
<path d="M12.0417 15.0522H4.95835C2.37294 15.0522 0.885437 13.5647 0.885437 10.9792V6.02091C0.885437 3.4355 2.37294 1.948 4.95835 1.948H12.0417C14.6271 1.948 16.1146 3.4355 16.1146 6.02091V10.9792C16.1146 13.5647 14.6271 15.0522 12.0417 15.0522ZM4.95835 3.0105C2.93252 3.0105 1.94794 3.99508 1.94794 6.02091V10.9792C1.94794 13.0051 2.93252 13.9897 4.95835 13.9897H12.0417C14.0675 13.9897 15.0521 13.0051 15.0521 10.9792V6.02091C15.0521 3.99508 14.0675 3.0105 12.0417 3.0105H4.95835Z" fill="#FBAD32"/>
<path d="M8.49982 9.11574C7.90482 9.11574 7.30274 8.93157 6.84232 8.55616L4.62524 6.78532C4.39857 6.60116 4.35607 6.26824 4.54024 6.04157C4.72441 5.81491 5.05733 5.77241 5.28399 5.95658L7.50107 7.72741C8.0394 8.15949 8.95315 8.15949 9.49148 7.72741L11.7086 5.95658C11.9352 5.77241 12.2752 5.80782 12.4523 6.04157C12.6365 6.26824 12.6011 6.60824 12.3673 6.78532L10.1502 8.55616C9.69691 8.93157 9.09482 9.11574 8.49982 9.11574Z" fill="#FBAD32"/>
</svg>
